<mxfile host="app.diagrams.net" agent="Mozilla/5.0 (Windows NT 10.0; Win64; x64) AppleWebKit/537.36 (KHTML, like Gecko) Chrome/131.0.0.0 Safari/537.36" version="25.0.3">
  <diagram name="Page-1" id="JU-Nk0e_ccFLVQyU_r8_">
    <mxGraphModel dx="6418" dy="1611" grid="1" gridSize="10" guides="1" tooltips="1" connect="1" arrows="1" fold="1" page="1" pageScale="1" pageWidth="850" pageHeight="1100" math="0" shadow="0">
      <root>
        <mxCell id="0" />
        <mxCell id="1" parent="0" />
        <mxCell id="2N7aKszrAWTcP0GYm7k7-212" value="User" style="shape=umlActor;verticalLabelPosition=bottom;verticalAlign=top;html=1;outlineConnect=0;" parent="1" vertex="1">
          <mxGeometry x="-4560" y="750" width="30" height="60" as="geometry" />
        </mxCell>
        <mxCell id="2N7aKszrAWTcP0GYm7k7-213" value="Đăng Nhập Google" style="ellipse;whiteSpace=wrap;html=1;" parent="1" vertex="1">
          <mxGeometry x="-4200" y="810" width="120" height="80" as="geometry" />
        </mxCell>
        <mxCell id="2N7aKszrAWTcP0GYm7k7-214" value="Đăng Nhập" style="ellipse;whiteSpace=wrap;html=1;" parent="1" vertex="1">
          <mxGeometry x="-4410" y="809" width="120" height="80" as="geometry" />
        </mxCell>
        <mxCell id="2N7aKszrAWTcP0GYm7k7-215" value="" style="endArrow=none;html=1;rounded=0;" parent="1" source="2N7aKszrAWTcP0GYm7k7-212" target="2N7aKszrAWTcP0GYm7k7-214" edge="1">
          <mxGeometry width="50" height="50" relative="1" as="geometry">
            <mxPoint x="-4370" y="930" as="sourcePoint" />
            <mxPoint x="-4320" y="880" as="targetPoint" />
          </mxGeometry>
        </mxCell>
        <mxCell id="2N7aKszrAWTcP0GYm7k7-217" value="Admin" style="shape=umlActor;verticalLabelPosition=bottom;verticalAlign=top;html=1;outlineConnect=0;" parent="1" vertex="1">
          <mxGeometry x="-4560" y="910" width="30" height="60" as="geometry" />
        </mxCell>
        <mxCell id="2N7aKszrAWTcP0GYm7k7-218" value="" style="endArrow=none;html=1;rounded=0;" parent="1" source="2N7aKszrAWTcP0GYm7k7-217" target="2N7aKszrAWTcP0GYm7k7-214" edge="1">
          <mxGeometry width="50" height="50" relative="1" as="geometry">
            <mxPoint x="-4460" y="870" as="sourcePoint" />
            <mxPoint x="-4410" y="820" as="targetPoint" />
          </mxGeometry>
        </mxCell>
        <mxCell id="2N7aKszrAWTcP0GYm7k7-219" value="" style="endArrow=none;dashed=1;html=1;rounded=0;startArrow=classicThin;startFill=0;" parent="1" source="2N7aKszrAWTcP0GYm7k7-214" target="2N7aKszrAWTcP0GYm7k7-213" edge="1">
          <mxGeometry width="50" height="50" relative="1" as="geometry">
            <mxPoint x="-4460" y="870" as="sourcePoint" />
            <mxPoint x="-4410" y="820" as="targetPoint" />
          </mxGeometry>
        </mxCell>
        <mxCell id="2N7aKszrAWTcP0GYm7k7-220" value="&amp;lt;&amp;lt;Extend&amp;gt;&amp;gt;" style="edgeLabel;html=1;align=center;verticalAlign=middle;resizable=0;points=[];" parent="2N7aKszrAWTcP0GYm7k7-219" connectable="0" vertex="1">
          <mxGeometry x="-0.0929" relative="1" as="geometry">
            <mxPoint y="1" as="offset" />
          </mxGeometry>
        </mxCell>
        <mxCell id="-8VmKLxqJh8vT_d7yKZr-1" value="User" style="shape=umlActor;verticalLabelPosition=bottom;verticalAlign=top;html=1;outlineConnect=0;" parent="1" vertex="1">
          <mxGeometry x="-3890" y="720" width="30" height="60" as="geometry" />
        </mxCell>
        <mxCell id="-8VmKLxqJh8vT_d7yKZr-3" value="Tìm Kiếm" style="ellipse;whiteSpace=wrap;html=1;" parent="1" vertex="1">
          <mxGeometry x="-3740" y="799" width="120" height="80" as="geometry" />
        </mxCell>
        <mxCell id="-8VmKLxqJh8vT_d7yKZr-4" value="" style="endArrow=none;html=1;rounded=0;" parent="1" source="-8VmKLxqJh8vT_d7yKZr-1" target="-8VmKLxqJh8vT_d7yKZr-3" edge="1">
          <mxGeometry width="50" height="50" relative="1" as="geometry">
            <mxPoint x="-3700" y="920" as="sourcePoint" />
            <mxPoint x="-3650" y="870" as="targetPoint" />
          </mxGeometry>
        </mxCell>
        <mxCell id="-8VmKLxqJh8vT_d7yKZr-14" value="UseCase Đăng Nhập" style="text;html=1;align=center;verticalAlign=middle;whiteSpace=wrap;rounded=0;" parent="1" vertex="1">
          <mxGeometry x="-4570" y="630" width="170" height="60" as="geometry" />
        </mxCell>
        <mxCell id="-8VmKLxqJh8vT_d7yKZr-15" value="UseCase Tìm Kiếm" style="text;html=1;align=center;verticalAlign=middle;whiteSpace=wrap;rounded=0;" parent="1" vertex="1">
          <mxGeometry x="-3890" y="630" width="140" height="60" as="geometry" />
        </mxCell>
        <mxCell id="-8VmKLxqJh8vT_d7yKZr-16" value="Guest" style="shape=umlActor;verticalLabelPosition=bottom;verticalAlign=top;html=1;outlineConnect=0;" parent="1" vertex="1">
          <mxGeometry x="-3890" y="879" width="30" height="60" as="geometry" />
        </mxCell>
        <mxCell id="-8VmKLxqJh8vT_d7yKZr-19" value="" style="endArrow=none;html=1;rounded=0;" parent="1" source="-8VmKLxqJh8vT_d7yKZr-16" target="-8VmKLxqJh8vT_d7yKZr-3" edge="1">
          <mxGeometry width="50" height="50" relative="1" as="geometry">
            <mxPoint x="-3800" y="910" as="sourcePoint" />
            <mxPoint x="-3750" y="860" as="targetPoint" />
          </mxGeometry>
        </mxCell>
        <mxCell id="-8VmKLxqJh8vT_d7yKZr-31" value="User" style="shape=umlActor;verticalLabelPosition=bottom;verticalAlign=top;html=1;outlineConnect=0;" parent="1" vertex="1">
          <mxGeometry x="-2995" y="660" width="30" height="60" as="geometry" />
        </mxCell>
        <mxCell id="-8VmKLxqJh8vT_d7yKZr-32" value="Phản Hồi" style="ellipse;whiteSpace=wrap;html=1;" parent="1" vertex="1">
          <mxGeometry x="-2800" y="750" width="120" height="80" as="geometry" />
        </mxCell>
        <mxCell id="-8VmKLxqJh8vT_d7yKZr-33" value="Bình Luận" style="ellipse;whiteSpace=wrap;html=1;" parent="1" vertex="1">
          <mxGeometry x="-3040" y="789" width="120" height="80" as="geometry" />
        </mxCell>
        <mxCell id="-8VmKLxqJh8vT_d7yKZr-34" value="" style="endArrow=none;html=1;rounded=0;" parent="1" source="-8VmKLxqJh8vT_d7yKZr-31" target="-8VmKLxqJh8vT_d7yKZr-33" edge="1">
          <mxGeometry width="50" height="50" relative="1" as="geometry">
            <mxPoint x="-3000" y="920" as="sourcePoint" />
            <mxPoint x="-2950" y="870" as="targetPoint" />
          </mxGeometry>
        </mxCell>
        <mxCell id="-8VmKLxqJh8vT_d7yKZr-35" value="" style="endArrow=none;dashed=1;html=1;rounded=0;startArrow=classicThin;startFill=0;" parent="1" source="-8VmKLxqJh8vT_d7yKZr-33" target="-8VmKLxqJh8vT_d7yKZr-32" edge="1">
          <mxGeometry width="50" height="50" relative="1" as="geometry">
            <mxPoint x="-3090" y="860" as="sourcePoint" />
            <mxPoint x="-3040" y="810" as="targetPoint" />
          </mxGeometry>
        </mxCell>
        <mxCell id="-8VmKLxqJh8vT_d7yKZr-36" value="&amp;lt;&amp;lt;Extend&amp;gt;&amp;gt;" style="edgeLabel;html=1;align=center;verticalAlign=middle;resizable=0;points=[];" parent="-8VmKLxqJh8vT_d7yKZr-35" connectable="0" vertex="1">
          <mxGeometry x="-0.0929" relative="1" as="geometry">
            <mxPoint y="1" as="offset" />
          </mxGeometry>
        </mxCell>
        <mxCell id="-8VmKLxqJh8vT_d7yKZr-37" value="UseCase Bình Luận" style="text;html=1;align=center;verticalAlign=middle;whiteSpace=wrap;rounded=0;" parent="1" vertex="1">
          <mxGeometry x="-3190" y="670" width="140" height="60" as="geometry" />
        </mxCell>
        <mxCell id="-8VmKLxqJh8vT_d7yKZr-41" value="User" style="shape=umlActor;verticalLabelPosition=bottom;verticalAlign=top;html=1;outlineConnect=0;" parent="1" vertex="1">
          <mxGeometry x="-2295" y="620" width="30" height="60" as="geometry" />
        </mxCell>
        <mxCell id="-8VmKLxqJh8vT_d7yKZr-42" value="Cập Nhật Thông TIn" style="ellipse;whiteSpace=wrap;html=1;" parent="1" vertex="1">
          <mxGeometry x="-2115" y="789" width="120" height="80" as="geometry" />
        </mxCell>
        <mxCell id="-8VmKLxqJh8vT_d7yKZr-43" value="Quản Lý Hồ Sơ" style="ellipse;whiteSpace=wrap;html=1;" parent="1" vertex="1">
          <mxGeometry x="-2340" y="789" width="120" height="80" as="geometry" />
        </mxCell>
        <mxCell id="-8VmKLxqJh8vT_d7yKZr-44" value="" style="endArrow=none;html=1;rounded=0;" parent="1" source="-8VmKLxqJh8vT_d7yKZr-41" target="-8VmKLxqJh8vT_d7yKZr-43" edge="1">
          <mxGeometry width="50" height="50" relative="1" as="geometry">
            <mxPoint x="-2300" y="910" as="sourcePoint" />
            <mxPoint x="-2250" y="860" as="targetPoint" />
          </mxGeometry>
        </mxCell>
        <mxCell id="-8VmKLxqJh8vT_d7yKZr-45" value="" style="endArrow=none;dashed=1;html=1;rounded=0;startArrow=classicThin;startFill=0;" parent="1" source="-8VmKLxqJh8vT_d7yKZr-43" target="-8VmKLxqJh8vT_d7yKZr-42" edge="1">
          <mxGeometry width="50" height="50" relative="1" as="geometry">
            <mxPoint x="-2390" y="850" as="sourcePoint" />
            <mxPoint x="-2340" y="800" as="targetPoint" />
          </mxGeometry>
        </mxCell>
        <mxCell id="-8VmKLxqJh8vT_d7yKZr-46" value="&amp;lt;&amp;lt;Extend&amp;gt;&amp;gt;" style="edgeLabel;html=1;align=center;verticalAlign=middle;resizable=0;points=[];" parent="-8VmKLxqJh8vT_d7yKZr-45" connectable="0" vertex="1">
          <mxGeometry x="-0.0929" relative="1" as="geometry">
            <mxPoint y="1" as="offset" />
          </mxGeometry>
        </mxCell>
        <mxCell id="-8VmKLxqJh8vT_d7yKZr-47" value="Admin" style="shape=umlActor;verticalLabelPosition=bottom;verticalAlign=top;html=1;outlineConnect=0;" parent="1" vertex="1">
          <mxGeometry x="-2295" y="949" width="30" height="61" as="geometry" />
        </mxCell>
        <mxCell id="-8VmKLxqJh8vT_d7yKZr-48" value="" style="endArrow=none;html=1;rounded=0;" parent="1" source="-8VmKLxqJh8vT_d7yKZr-47" target="-8VmKLxqJh8vT_d7yKZr-43" edge="1">
          <mxGeometry width="50" height="50" relative="1" as="geometry">
            <mxPoint x="-2400" y="900" as="sourcePoint" />
            <mxPoint x="-2350" y="850" as="targetPoint" />
          </mxGeometry>
        </mxCell>
        <mxCell id="-8VmKLxqJh8vT_d7yKZr-49" value="User" style="shape=umlActor;verticalLabelPosition=bottom;verticalAlign=top;html=1;outlineConnect=0;" parent="1" vertex="1">
          <mxGeometry x="-4560" y="1239" width="30" height="60" as="geometry" />
        </mxCell>
        <mxCell id="-8VmKLxqJh8vT_d7yKZr-50" value="MoMo" style="ellipse;whiteSpace=wrap;html=1;" parent="1" vertex="1">
          <mxGeometry x="-4240" y="1149" width="120" height="80" as="geometry" />
        </mxCell>
        <mxCell id="-8VmKLxqJh8vT_d7yKZr-51" value="Thanh Toán" style="ellipse;whiteSpace=wrap;html=1;" parent="1" vertex="1">
          <mxGeometry x="-4430" y="1229" width="120" height="80" as="geometry" />
        </mxCell>
        <mxCell id="-8VmKLxqJh8vT_d7yKZr-52" value="" style="endArrow=none;html=1;rounded=0;" parent="1" source="-8VmKLxqJh8vT_d7yKZr-49" target="-8VmKLxqJh8vT_d7yKZr-51" edge="1">
          <mxGeometry width="50" height="50" relative="1" as="geometry">
            <mxPoint x="-4370" y="1360" as="sourcePoint" />
            <mxPoint x="-4320" y="1310" as="targetPoint" />
          </mxGeometry>
        </mxCell>
        <mxCell id="-8VmKLxqJh8vT_d7yKZr-55" value="" style="endArrow=none;dashed=1;html=1;rounded=0;startArrow=classicThin;startFill=0;" parent="1" source="-8VmKLxqJh8vT_d7yKZr-51" target="-8VmKLxqJh8vT_d7yKZr-50" edge="1">
          <mxGeometry width="50" height="50" relative="1" as="geometry">
            <mxPoint x="-4460" y="1300" as="sourcePoint" />
            <mxPoint x="-4410" y="1250" as="targetPoint" />
          </mxGeometry>
        </mxCell>
        <mxCell id="-8VmKLxqJh8vT_d7yKZr-56" value="&amp;lt;&amp;lt;Extend&amp;gt;&amp;gt;" style="edgeLabel;html=1;align=center;verticalAlign=middle;resizable=0;points=[];" parent="-8VmKLxqJh8vT_d7yKZr-55" connectable="0" vertex="1">
          <mxGeometry x="-0.0929" relative="1" as="geometry">
            <mxPoint y="1" as="offset" />
          </mxGeometry>
        </mxCell>
        <mxCell id="-8VmKLxqJh8vT_d7yKZr-57" value="UseCase Thanh Toán" style="text;html=1;align=center;verticalAlign=middle;whiteSpace=wrap;rounded=0;" parent="1" vertex="1">
          <mxGeometry x="-4570" y="1130" width="170" height="60" as="geometry" />
        </mxCell>
        <mxCell id="-8VmKLxqJh8vT_d7yKZr-67" value="Ngân Hàng" style="ellipse;whiteSpace=wrap;html=1;" parent="1" vertex="1">
          <mxGeometry x="-4240" y="1309" width="120" height="80" as="geometry" />
        </mxCell>
        <mxCell id="-8VmKLxqJh8vT_d7yKZr-69" value="" style="endArrow=none;dashed=1;html=1;rounded=0;startArrow=classicThin;startFill=0;" parent="1" source="-8VmKLxqJh8vT_d7yKZr-51" target="-8VmKLxqJh8vT_d7yKZr-67" edge="1">
          <mxGeometry width="50" height="50" relative="1" as="geometry">
            <mxPoint x="-4318" y="1250" as="sourcePoint" />
            <mxPoint x="-4212" y="1179" as="targetPoint" />
          </mxGeometry>
        </mxCell>
        <mxCell id="-8VmKLxqJh8vT_d7yKZr-70" value="&amp;lt;&amp;lt;Extend&amp;gt;&amp;gt;" style="edgeLabel;html=1;align=center;verticalAlign=middle;resizable=0;points=[];" parent="-8VmKLxqJh8vT_d7yKZr-69" connectable="0" vertex="1">
          <mxGeometry x="-0.0929" relative="1" as="geometry">
            <mxPoint y="1" as="offset" />
          </mxGeometry>
        </mxCell>
        <mxCell id="-8VmKLxqJh8vT_d7yKZr-82" value="Đăng Nhập" style="ellipse;whiteSpace=wrap;html=1;" parent="1" vertex="1">
          <mxGeometry x="-3250" y="789" width="120" height="80" as="geometry" />
        </mxCell>
        <mxCell id="-8VmKLxqJh8vT_d7yKZr-85" value="" style="endArrow=none;dashed=1;html=1;rounded=0;endFill=0;startArrow=classicThin;startFill=0;" parent="1" source="-8VmKLxqJh8vT_d7yKZr-82" target="-8VmKLxqJh8vT_d7yKZr-33" edge="1">
          <mxGeometry width="50" height="50" relative="1" as="geometry">
            <mxPoint x="-2970" y="1030" as="sourcePoint" />
            <mxPoint x="-2920" y="980" as="targetPoint" />
          </mxGeometry>
        </mxCell>
        <mxCell id="-8VmKLxqJh8vT_d7yKZr-86" value="&amp;lt;&amp;lt;Include&amp;gt;&amp;gt;" style="edgeLabel;html=1;align=center;verticalAlign=middle;resizable=0;points=[];" parent="-8VmKLxqJh8vT_d7yKZr-85" connectable="0" vertex="1">
          <mxGeometry x="0.0041" relative="1" as="geometry">
            <mxPoint as="offset" />
          </mxGeometry>
        </mxCell>
        <mxCell id="-8VmKLxqJh8vT_d7yKZr-90" value="Đăng Nhập" style="ellipse;whiteSpace=wrap;html=1;" parent="1" vertex="1">
          <mxGeometry x="-2560" y="789" width="120" height="80" as="geometry" />
        </mxCell>
        <mxCell id="-8VmKLxqJh8vT_d7yKZr-91" value="" style="endArrow=none;dashed=1;html=1;rounded=0;endFill=0;startArrow=classicThin;startFill=0;" parent="1" source="-8VmKLxqJh8vT_d7yKZr-90" target="-8VmKLxqJh8vT_d7yKZr-43" edge="1">
          <mxGeometry width="50" height="50" relative="1" as="geometry">
            <mxPoint x="-2960" y="1040" as="sourcePoint" />
            <mxPoint x="-3030" y="839" as="targetPoint" />
          </mxGeometry>
        </mxCell>
        <mxCell id="-8VmKLxqJh8vT_d7yKZr-92" value="&amp;lt;&amp;lt;Include&amp;gt;&amp;gt;" style="edgeLabel;html=1;align=center;verticalAlign=middle;resizable=0;points=[];" parent="-8VmKLxqJh8vT_d7yKZr-91" connectable="0" vertex="1">
          <mxGeometry x="0.0041" relative="1" as="geometry">
            <mxPoint as="offset" />
          </mxGeometry>
        </mxCell>
        <mxCell id="-8VmKLxqJh8vT_d7yKZr-93" value="UseCase Quản Lý Hồ Sơ" style="text;html=1;align=center;verticalAlign=middle;whiteSpace=wrap;rounded=0;" parent="1" vertex="1">
          <mxGeometry x="-2550" y="610" width="140" height="60" as="geometry" />
        </mxCell>
        <mxCell id="-8VmKLxqJh8vT_d7yKZr-108" value="Thêm" style="ellipse;whiteSpace=wrap;html=1;" parent="1" vertex="1">
          <mxGeometry x="-3480" y="1111" width="120" height="80" as="geometry" />
        </mxCell>
        <mxCell id="-8VmKLxqJh8vT_d7yKZr-109" value="Quản Lý Game" style="ellipse;whiteSpace=wrap;html=1;" parent="1" vertex="1">
          <mxGeometry x="-3720" y="1239" width="120" height="80" as="geometry" />
        </mxCell>
        <mxCell id="-8VmKLxqJh8vT_d7yKZr-111" value="" style="endArrow=none;dashed=1;html=1;rounded=0;startArrow=classicThin;startFill=0;" parent="1" source="-8VmKLxqJh8vT_d7yKZr-109" target="-8VmKLxqJh8vT_d7yKZr-108" edge="1">
          <mxGeometry width="50" height="50" relative="1" as="geometry">
            <mxPoint x="-3770" y="1300" as="sourcePoint" />
            <mxPoint x="-3720" y="1250" as="targetPoint" />
          </mxGeometry>
        </mxCell>
        <mxCell id="-8VmKLxqJh8vT_d7yKZr-112" value="&amp;lt;&amp;lt;Extend&amp;gt;&amp;gt;" style="edgeLabel;html=1;align=center;verticalAlign=middle;resizable=0;points=[];" parent="-8VmKLxqJh8vT_d7yKZr-111" connectable="0" vertex="1">
          <mxGeometry x="-0.0929" relative="1" as="geometry">
            <mxPoint y="1" as="offset" />
          </mxGeometry>
        </mxCell>
        <mxCell id="-8VmKLxqJh8vT_d7yKZr-113" value="Admin" style="shape=umlActor;verticalLabelPosition=bottom;verticalAlign=top;html=1;outlineConnect=0;" parent="1" vertex="1">
          <mxGeometry x="-3675" y="1130" width="30" height="61" as="geometry" />
        </mxCell>
        <mxCell id="-8VmKLxqJh8vT_d7yKZr-114" value="" style="endArrow=none;html=1;rounded=0;" parent="1" source="-8VmKLxqJh8vT_d7yKZr-113" target="-8VmKLxqJh8vT_d7yKZr-109" edge="1">
          <mxGeometry width="50" height="50" relative="1" as="geometry">
            <mxPoint x="-3780" y="1350" as="sourcePoint" />
            <mxPoint x="-3730" y="1300" as="targetPoint" />
          </mxGeometry>
        </mxCell>
        <mxCell id="-8VmKLxqJh8vT_d7yKZr-115" value="Đăng Nhập" style="ellipse;whiteSpace=wrap;html=1;" parent="1" vertex="1">
          <mxGeometry x="-3940" y="1239" width="120" height="80" as="geometry" />
        </mxCell>
        <mxCell id="-8VmKLxqJh8vT_d7yKZr-116" value="" style="endArrow=none;dashed=1;html=1;rounded=0;endFill=0;startArrow=classicThin;startFill=0;" parent="1" source="-8VmKLxqJh8vT_d7yKZr-115" target="-8VmKLxqJh8vT_d7yKZr-109" edge="1">
          <mxGeometry width="50" height="50" relative="1" as="geometry">
            <mxPoint x="-4340" y="1490" as="sourcePoint" />
            <mxPoint x="-4410" y="1289" as="targetPoint" />
          </mxGeometry>
        </mxCell>
        <mxCell id="-8VmKLxqJh8vT_d7yKZr-117" value="&amp;lt;&amp;lt;Include&amp;gt;&amp;gt;" style="edgeLabel;html=1;align=center;verticalAlign=middle;resizable=0;points=[];" parent="-8VmKLxqJh8vT_d7yKZr-116" connectable="0" vertex="1">
          <mxGeometry x="0.0041" relative="1" as="geometry">
            <mxPoint as="offset" />
          </mxGeometry>
        </mxCell>
        <mxCell id="-8VmKLxqJh8vT_d7yKZr-118" value="UseCase Quản Lý Game" style="text;html=1;align=center;verticalAlign=middle;whiteSpace=wrap;rounded=0;" parent="1" vertex="1">
          <mxGeometry x="-3930" y="1060" width="140" height="60" as="geometry" />
        </mxCell>
        <mxCell id="-8VmKLxqJh8vT_d7yKZr-119" value="Sửa" style="ellipse;whiteSpace=wrap;html=1;" parent="1" vertex="1">
          <mxGeometry x="-3480" y="1200" width="120" height="80" as="geometry" />
        </mxCell>
        <mxCell id="-8VmKLxqJh8vT_d7yKZr-120" value="" style="endArrow=none;dashed=1;html=1;rounded=0;startArrow=classicThin;startFill=0;" parent="1" source="-8VmKLxqJh8vT_d7yKZr-109" target="-8VmKLxqJh8vT_d7yKZr-119" edge="1">
          <mxGeometry width="50" height="50" relative="1" as="geometry">
            <mxPoint x="-3611" y="1354" as="sourcePoint" />
            <mxPoint x="-3720" y="1349" as="targetPoint" />
          </mxGeometry>
        </mxCell>
        <mxCell id="-8VmKLxqJh8vT_d7yKZr-121" value="&amp;lt;&amp;lt;Extend&amp;gt;&amp;gt;" style="edgeLabel;html=1;align=center;verticalAlign=middle;resizable=0;points=[];" parent="-8VmKLxqJh8vT_d7yKZr-120" connectable="0" vertex="1">
          <mxGeometry x="-0.0929" relative="1" as="geometry">
            <mxPoint y="1" as="offset" />
          </mxGeometry>
        </mxCell>
        <mxCell id="-8VmKLxqJh8vT_d7yKZr-122" value="Xóa" style="ellipse;whiteSpace=wrap;html=1;" parent="1" vertex="1">
          <mxGeometry x="-3480" y="1290" width="120" height="80" as="geometry" />
        </mxCell>
        <mxCell id="-8VmKLxqJh8vT_d7yKZr-123" value="" style="endArrow=none;dashed=1;html=1;rounded=0;startArrow=classicThin;startFill=0;" parent="1" source="-8VmKLxqJh8vT_d7yKZr-109" target="-8VmKLxqJh8vT_d7yKZr-122" edge="1">
          <mxGeometry width="50" height="50" relative="1" as="geometry">
            <mxPoint x="-3611" y="1475" as="sourcePoint" />
            <mxPoint x="-3720" y="1470" as="targetPoint" />
          </mxGeometry>
        </mxCell>
        <mxCell id="-8VmKLxqJh8vT_d7yKZr-124" value="&amp;lt;&amp;lt;Extend&amp;gt;&amp;gt;" style="edgeLabel;html=1;align=center;verticalAlign=middle;resizable=0;points=[];" parent="-8VmKLxqJh8vT_d7yKZr-123" connectable="0" vertex="1">
          <mxGeometry x="-0.0929" relative="1" as="geometry">
            <mxPoint y="1" as="offset" />
          </mxGeometry>
        </mxCell>
        <mxCell id="-8VmKLxqJh8vT_d7yKZr-125" value="Thêm" style="ellipse;whiteSpace=wrap;html=1;" parent="1" vertex="1">
          <mxGeometry x="-2700" y="1101" width="120" height="80" as="geometry" />
        </mxCell>
        <mxCell id="-8VmKLxqJh8vT_d7yKZr-126" value="Quản Lý Tài Khoản" style="ellipse;whiteSpace=wrap;html=1;" parent="1" vertex="1">
          <mxGeometry x="-2940" y="1229" width="120" height="80" as="geometry" />
        </mxCell>
        <mxCell id="-8VmKLxqJh8vT_d7yKZr-127" value="" style="endArrow=none;dashed=1;html=1;rounded=0;startArrow=classicThin;startFill=0;" parent="1" source="-8VmKLxqJh8vT_d7yKZr-126" target="-8VmKLxqJh8vT_d7yKZr-125" edge="1">
          <mxGeometry width="50" height="50" relative="1" as="geometry">
            <mxPoint x="-2990" y="1290" as="sourcePoint" />
            <mxPoint x="-2940" y="1240" as="targetPoint" />
          </mxGeometry>
        </mxCell>
        <mxCell id="-8VmKLxqJh8vT_d7yKZr-128" value="&amp;lt;&amp;lt;Extend&amp;gt;&amp;gt;" style="edgeLabel;html=1;align=center;verticalAlign=middle;resizable=0;points=[];" parent="-8VmKLxqJh8vT_d7yKZr-127" connectable="0" vertex="1">
          <mxGeometry x="-0.0929" relative="1" as="geometry">
            <mxPoint y="1" as="offset" />
          </mxGeometry>
        </mxCell>
        <mxCell id="-8VmKLxqJh8vT_d7yKZr-129" value="Admin" style="shape=umlActor;verticalLabelPosition=bottom;verticalAlign=top;html=1;outlineConnect=0;" parent="1" vertex="1">
          <mxGeometry x="-2895" y="1120" width="30" height="61" as="geometry" />
        </mxCell>
        <mxCell id="-8VmKLxqJh8vT_d7yKZr-130" value="" style="endArrow=none;html=1;rounded=0;" parent="1" source="-8VmKLxqJh8vT_d7yKZr-129" target="-8VmKLxqJh8vT_d7yKZr-126" edge="1">
          <mxGeometry width="50" height="50" relative="1" as="geometry">
            <mxPoint x="-3000" y="1340" as="sourcePoint" />
            <mxPoint x="-2950" y="1290" as="targetPoint" />
          </mxGeometry>
        </mxCell>
        <mxCell id="-8VmKLxqJh8vT_d7yKZr-131" value="Đăng Nhập" style="ellipse;whiteSpace=wrap;html=1;" parent="1" vertex="1">
          <mxGeometry x="-3160" y="1229" width="120" height="80" as="geometry" />
        </mxCell>
        <mxCell id="-8VmKLxqJh8vT_d7yKZr-132" value="" style="endArrow=none;dashed=1;html=1;rounded=0;endFill=0;startArrow=classicThin;startFill=0;" parent="1" source="-8VmKLxqJh8vT_d7yKZr-131" target="-8VmKLxqJh8vT_d7yKZr-126" edge="1">
          <mxGeometry width="50" height="50" relative="1" as="geometry">
            <mxPoint x="-3560" y="1480" as="sourcePoint" />
            <mxPoint x="-3630" y="1279" as="targetPoint" />
          </mxGeometry>
        </mxCell>
        <mxCell id="-8VmKLxqJh8vT_d7yKZr-133" value="&amp;lt;&amp;lt;Include&amp;gt;&amp;gt;" style="edgeLabel;html=1;align=center;verticalAlign=middle;resizable=0;points=[];" parent="-8VmKLxqJh8vT_d7yKZr-132" connectable="0" vertex="1">
          <mxGeometry x="0.0041" relative="1" as="geometry">
            <mxPoint as="offset" />
          </mxGeometry>
        </mxCell>
        <mxCell id="-8VmKLxqJh8vT_d7yKZr-134" value="UseCase Quản Lý Tài Khoản" style="text;html=1;align=center;verticalAlign=middle;whiteSpace=wrap;rounded=0;" parent="1" vertex="1">
          <mxGeometry x="-3150" y="1050" width="180" height="60" as="geometry" />
        </mxCell>
        <mxCell id="-8VmKLxqJh8vT_d7yKZr-135" value="Sửa" style="ellipse;whiteSpace=wrap;html=1;" parent="1" vertex="1">
          <mxGeometry x="-2700" y="1229" width="120" height="80" as="geometry" />
        </mxCell>
        <mxCell id="-8VmKLxqJh8vT_d7yKZr-136" value="" style="endArrow=none;dashed=1;html=1;rounded=0;startArrow=classicThin;startFill=0;" parent="1" source="-8VmKLxqJh8vT_d7yKZr-126" target="-8VmKLxqJh8vT_d7yKZr-135" edge="1">
          <mxGeometry width="50" height="50" relative="1" as="geometry">
            <mxPoint x="-2831" y="1344" as="sourcePoint" />
            <mxPoint x="-2940" y="1339" as="targetPoint" />
          </mxGeometry>
        </mxCell>
        <mxCell id="-8VmKLxqJh8vT_d7yKZr-137" value="&amp;lt;&amp;lt;Extend&amp;gt;&amp;gt;" style="edgeLabel;html=1;align=center;verticalAlign=middle;resizable=0;points=[];" parent="-8VmKLxqJh8vT_d7yKZr-136" connectable="0" vertex="1">
          <mxGeometry x="-0.0929" relative="1" as="geometry">
            <mxPoint y="1" as="offset" />
          </mxGeometry>
        </mxCell>
        <mxCell id="-8VmKLxqJh8vT_d7yKZr-138" value="Xóa" style="ellipse;whiteSpace=wrap;html=1;" parent="1" vertex="1">
          <mxGeometry x="-2700" y="1340" width="120" height="80" as="geometry" />
        </mxCell>
        <mxCell id="-8VmKLxqJh8vT_d7yKZr-139" value="" style="endArrow=none;dashed=1;html=1;rounded=0;startArrow=classicThin;startFill=0;" parent="1" source="-8VmKLxqJh8vT_d7yKZr-126" target="-8VmKLxqJh8vT_d7yKZr-138" edge="1">
          <mxGeometry width="50" height="50" relative="1" as="geometry">
            <mxPoint x="-2831" y="1465" as="sourcePoint" />
            <mxPoint x="-2940" y="1460" as="targetPoint" />
          </mxGeometry>
        </mxCell>
        <mxCell id="-8VmKLxqJh8vT_d7yKZr-140" value="&amp;lt;&amp;lt;Extend&amp;gt;&amp;gt;" style="edgeLabel;html=1;align=center;verticalAlign=middle;resizable=0;points=[];" parent="-8VmKLxqJh8vT_d7yKZr-139" connectable="0" vertex="1">
          <mxGeometry x="-0.0929" relative="1" as="geometry">
            <mxPoint y="1" as="offset" />
          </mxGeometry>
        </mxCell>
        <mxCell id="-8VmKLxqJh8vT_d7yKZr-141" value="Thêm" style="ellipse;whiteSpace=wrap;html=1;" parent="1" vertex="1">
          <mxGeometry x="-1840" y="1131" width="120" height="80" as="geometry" />
        </mxCell>
        <mxCell id="-8VmKLxqJh8vT_d7yKZr-142" value="Quản&amp;nbsp; Lý Thể Loại Game" style="ellipse;whiteSpace=wrap;html=1;" parent="1" vertex="1">
          <mxGeometry x="-2080" y="1259" width="120" height="80" as="geometry" />
        </mxCell>
        <mxCell id="-8VmKLxqJh8vT_d7yKZr-143" value="" style="endArrow=none;dashed=1;html=1;rounded=0;startArrow=classicThin;startFill=0;" parent="1" source="-8VmKLxqJh8vT_d7yKZr-142" target="-8VmKLxqJh8vT_d7yKZr-141" edge="1">
          <mxGeometry width="50" height="50" relative="1" as="geometry">
            <mxPoint x="-2130" y="1320" as="sourcePoint" />
            <mxPoint x="-2080" y="1270" as="targetPoint" />
          </mxGeometry>
        </mxCell>
        <mxCell id="-8VmKLxqJh8vT_d7yKZr-144" value="&amp;lt;&amp;lt;Extend&amp;gt;&amp;gt;" style="edgeLabel;html=1;align=center;verticalAlign=middle;resizable=0;points=[];" parent="-8VmKLxqJh8vT_d7yKZr-143" connectable="0" vertex="1">
          <mxGeometry x="-0.0929" relative="1" as="geometry">
            <mxPoint y="1" as="offset" />
          </mxGeometry>
        </mxCell>
        <mxCell id="-8VmKLxqJh8vT_d7yKZr-145" value="Admin" style="shape=umlActor;verticalLabelPosition=bottom;verticalAlign=top;html=1;outlineConnect=0;" parent="1" vertex="1">
          <mxGeometry x="-2035" y="1150" width="30" height="61" as="geometry" />
        </mxCell>
        <mxCell id="-8VmKLxqJh8vT_d7yKZr-146" value="" style="endArrow=none;html=1;rounded=0;" parent="1" source="-8VmKLxqJh8vT_d7yKZr-145" target="-8VmKLxqJh8vT_d7yKZr-142" edge="1">
          <mxGeometry width="50" height="50" relative="1" as="geometry">
            <mxPoint x="-2140" y="1370" as="sourcePoint" />
            <mxPoint x="-2090" y="1320" as="targetPoint" />
          </mxGeometry>
        </mxCell>
        <mxCell id="-8VmKLxqJh8vT_d7yKZr-147" value="Đăng Nhập" style="ellipse;whiteSpace=wrap;html=1;" parent="1" vertex="1">
          <mxGeometry x="-2300" y="1259" width="120" height="80" as="geometry" />
        </mxCell>
        <mxCell id="-8VmKLxqJh8vT_d7yKZr-148" value="" style="endArrow=none;dashed=1;html=1;rounded=0;endFill=0;startArrow=classicThin;startFill=0;" parent="1" source="-8VmKLxqJh8vT_d7yKZr-147" target="-8VmKLxqJh8vT_d7yKZr-142" edge="1">
          <mxGeometry width="50" height="50" relative="1" as="geometry">
            <mxPoint x="-2700" y="1510" as="sourcePoint" />
            <mxPoint x="-2770" y="1309" as="targetPoint" />
          </mxGeometry>
        </mxCell>
        <mxCell id="-8VmKLxqJh8vT_d7yKZr-149" value="&amp;lt;&amp;lt;Include&amp;gt;&amp;gt;" style="edgeLabel;html=1;align=center;verticalAlign=middle;resizable=0;points=[];" parent="-8VmKLxqJh8vT_d7yKZr-148" connectable="0" vertex="1">
          <mxGeometry x="0.0041" relative="1" as="geometry">
            <mxPoint as="offset" />
          </mxGeometry>
        </mxCell>
        <mxCell id="-8VmKLxqJh8vT_d7yKZr-150" value="UseCase Quản&amp;nbsp; Lý Thể Loại Game" style="text;html=1;align=center;verticalAlign=middle;whiteSpace=wrap;rounded=0;" parent="1" vertex="1">
          <mxGeometry x="-2290" y="1080" width="210" height="60" as="geometry" />
        </mxCell>
        <mxCell id="-8VmKLxqJh8vT_d7yKZr-151" value="Sửa" style="ellipse;whiteSpace=wrap;html=1;" parent="1" vertex="1">
          <mxGeometry x="-1840" y="1259" width="120" height="80" as="geometry" />
        </mxCell>
        <mxCell id="-8VmKLxqJh8vT_d7yKZr-152" value="" style="endArrow=none;dashed=1;html=1;rounded=0;startArrow=classicThin;startFill=0;" parent="1" source="-8VmKLxqJh8vT_d7yKZr-142" target="-8VmKLxqJh8vT_d7yKZr-151" edge="1">
          <mxGeometry width="50" height="50" relative="1" as="geometry">
            <mxPoint x="-1971" y="1374" as="sourcePoint" />
            <mxPoint x="-2080" y="1369" as="targetPoint" />
          </mxGeometry>
        </mxCell>
        <mxCell id="-8VmKLxqJh8vT_d7yKZr-153" value="&amp;lt;&amp;lt;Extend&amp;gt;&amp;gt;" style="edgeLabel;html=1;align=center;verticalAlign=middle;resizable=0;points=[];" parent="-8VmKLxqJh8vT_d7yKZr-152" connectable="0" vertex="1">
          <mxGeometry x="-0.0929" relative="1" as="geometry">
            <mxPoint y="1" as="offset" />
          </mxGeometry>
        </mxCell>
        <mxCell id="-8VmKLxqJh8vT_d7yKZr-154" value="Xóa" style="ellipse;whiteSpace=wrap;html=1;" parent="1" vertex="1">
          <mxGeometry x="-1840" y="1370" width="120" height="80" as="geometry" />
        </mxCell>
        <mxCell id="-8VmKLxqJh8vT_d7yKZr-155" value="" style="endArrow=none;dashed=1;html=1;rounded=0;startArrow=classicThin;startFill=0;" parent="1" source="-8VmKLxqJh8vT_d7yKZr-142" target="-8VmKLxqJh8vT_d7yKZr-154" edge="1">
          <mxGeometry width="50" height="50" relative="1" as="geometry">
            <mxPoint x="-1971" y="1495" as="sourcePoint" />
            <mxPoint x="-2080" y="1490" as="targetPoint" />
          </mxGeometry>
        </mxCell>
        <mxCell id="-8VmKLxqJh8vT_d7yKZr-156" value="&amp;lt;&amp;lt;Extend&amp;gt;&amp;gt;" style="edgeLabel;html=1;align=center;verticalAlign=middle;resizable=0;points=[];" parent="-8VmKLxqJh8vT_d7yKZr-155" connectable="0" vertex="1">
          <mxGeometry x="-0.0929" relative="1" as="geometry">
            <mxPoint y="1" as="offset" />
          </mxGeometry>
        </mxCell>
        <mxCell id="-8VmKLxqJh8vT_d7yKZr-157" value="Thêm" style="ellipse;whiteSpace=wrap;html=1;" parent="1" vertex="1">
          <mxGeometry x="-4120" y="1590.5" width="120" height="80" as="geometry" />
        </mxCell>
        <mxCell id="-8VmKLxqJh8vT_d7yKZr-158" value="Quản Lý Quảng Cáo" style="ellipse;whiteSpace=wrap;html=1;" parent="1" vertex="1">
          <mxGeometry x="-4360" y="1709" width="120" height="80" as="geometry" />
        </mxCell>
        <mxCell id="-8VmKLxqJh8vT_d7yKZr-159" value="" style="endArrow=none;dashed=1;html=1;rounded=0;startArrow=classicThin;startFill=0;" parent="1" source="-8VmKLxqJh8vT_d7yKZr-158" target="-8VmKLxqJh8vT_d7yKZr-157" edge="1">
          <mxGeometry width="50" height="50" relative="1" as="geometry">
            <mxPoint x="-4410" y="1770" as="sourcePoint" />
            <mxPoint x="-4360" y="1720" as="targetPoint" />
          </mxGeometry>
        </mxCell>
        <mxCell id="-8VmKLxqJh8vT_d7yKZr-160" value="&amp;lt;&amp;lt;Extend&amp;gt;&amp;gt;" style="edgeLabel;html=1;align=center;verticalAlign=middle;resizable=0;points=[];" parent="-8VmKLxqJh8vT_d7yKZr-159" connectable="0" vertex="1">
          <mxGeometry x="-0.0929" relative="1" as="geometry">
            <mxPoint y="1" as="offset" />
          </mxGeometry>
        </mxCell>
        <mxCell id="-8VmKLxqJh8vT_d7yKZr-161" value="Admin" style="shape=umlActor;verticalLabelPosition=bottom;verticalAlign=top;html=1;outlineConnect=0;" parent="1" vertex="1">
          <mxGeometry x="-4315" y="1600" width="30" height="61" as="geometry" />
        </mxCell>
        <mxCell id="-8VmKLxqJh8vT_d7yKZr-162" value="" style="endArrow=none;html=1;rounded=0;" parent="1" source="-8VmKLxqJh8vT_d7yKZr-161" target="-8VmKLxqJh8vT_d7yKZr-158" edge="1">
          <mxGeometry width="50" height="50" relative="1" as="geometry">
            <mxPoint x="-4420" y="1820" as="sourcePoint" />
            <mxPoint x="-4370" y="1770" as="targetPoint" />
          </mxGeometry>
        </mxCell>
        <mxCell id="-8VmKLxqJh8vT_d7yKZr-163" value="Đăng Nhập" style="ellipse;whiteSpace=wrap;html=1;" parent="1" vertex="1">
          <mxGeometry x="-4580" y="1709" width="120" height="80" as="geometry" />
        </mxCell>
        <mxCell id="-8VmKLxqJh8vT_d7yKZr-164" value="" style="endArrow=none;dashed=1;html=1;rounded=0;endFill=0;startArrow=classicThin;startFill=0;" parent="1" source="-8VmKLxqJh8vT_d7yKZr-163" target="-8VmKLxqJh8vT_d7yKZr-158" edge="1">
          <mxGeometry width="50" height="50" relative="1" as="geometry">
            <mxPoint x="-4980" y="1960" as="sourcePoint" />
            <mxPoint x="-5050" y="1759" as="targetPoint" />
          </mxGeometry>
        </mxCell>
        <mxCell id="-8VmKLxqJh8vT_d7yKZr-165" value="&amp;lt;&amp;lt;Include&amp;gt;&amp;gt;" style="edgeLabel;html=1;align=center;verticalAlign=middle;resizable=0;points=[];" parent="-8VmKLxqJh8vT_d7yKZr-164" connectable="0" vertex="1">
          <mxGeometry x="0.0041" relative="1" as="geometry">
            <mxPoint as="offset" />
          </mxGeometry>
        </mxCell>
        <mxCell id="-8VmKLxqJh8vT_d7yKZr-166" value="UseCase Quản Lý Quảng Cáo" style="text;html=1;align=center;verticalAlign=middle;whiteSpace=wrap;rounded=0;" parent="1" vertex="1">
          <mxGeometry x="-4570" y="1530" width="180" height="60" as="geometry" />
        </mxCell>
        <mxCell id="-8VmKLxqJh8vT_d7yKZr-167" value="Sửa" style="ellipse;whiteSpace=wrap;html=1;" parent="1" vertex="1">
          <mxGeometry x="-4120" y="1709" width="120" height="80" as="geometry" />
        </mxCell>
        <mxCell id="-8VmKLxqJh8vT_d7yKZr-168" value="" style="endArrow=none;dashed=1;html=1;rounded=0;startArrow=classicThin;startFill=0;" parent="1" source="-8VmKLxqJh8vT_d7yKZr-158" target="-8VmKLxqJh8vT_d7yKZr-167" edge="1">
          <mxGeometry width="50" height="50" relative="1" as="geometry">
            <mxPoint x="-4251" y="1824" as="sourcePoint" />
            <mxPoint x="-4360" y="1819" as="targetPoint" />
          </mxGeometry>
        </mxCell>
        <mxCell id="-8VmKLxqJh8vT_d7yKZr-169" value="&amp;lt;&amp;lt;Extend&amp;gt;&amp;gt;" style="edgeLabel;html=1;align=center;verticalAlign=middle;resizable=0;points=[];" parent="-8VmKLxqJh8vT_d7yKZr-168" connectable="0" vertex="1">
          <mxGeometry x="-0.0929" relative="1" as="geometry">
            <mxPoint y="1" as="offset" />
          </mxGeometry>
        </mxCell>
        <mxCell id="-8VmKLxqJh8vT_d7yKZr-170" value="Xóa" style="ellipse;whiteSpace=wrap;html=1;" parent="1" vertex="1">
          <mxGeometry x="-4120" y="1820" width="120" height="80" as="geometry" />
        </mxCell>
        <mxCell id="-8VmKLxqJh8vT_d7yKZr-171" value="" style="endArrow=none;dashed=1;html=1;rounded=0;startArrow=classicThin;startFill=0;" parent="1" source="-8VmKLxqJh8vT_d7yKZr-158" target="-8VmKLxqJh8vT_d7yKZr-170" edge="1">
          <mxGeometry width="50" height="50" relative="1" as="geometry">
            <mxPoint x="-4251" y="1945" as="sourcePoint" />
            <mxPoint x="-4360" y="1940" as="targetPoint" />
          </mxGeometry>
        </mxCell>
        <mxCell id="-8VmKLxqJh8vT_d7yKZr-172" value="&amp;lt;&amp;lt;Extend&amp;gt;&amp;gt;" style="edgeLabel;html=1;align=center;verticalAlign=middle;resizable=0;points=[];" parent="-8VmKLxqJh8vT_d7yKZr-171" connectable="0" vertex="1">
          <mxGeometry x="-0.0929" relative="1" as="geometry">
            <mxPoint y="1" as="offset" />
          </mxGeometry>
        </mxCell>
        <mxCell id="-8VmKLxqJh8vT_d7yKZr-174" value="Admin" style="shape=umlActor;verticalLabelPosition=bottom;verticalAlign=top;html=1;outlineConnect=0;" parent="1" vertex="1">
          <mxGeometry x="-3425" y="1570" width="30" height="60" as="geometry" />
        </mxCell>
        <mxCell id="-8VmKLxqJh8vT_d7yKZr-175" value="Xuất File Excel" style="ellipse;whiteSpace=wrap;html=1;" parent="1" vertex="1">
          <mxGeometry x="-3280" y="1660" width="120" height="80" as="geometry" />
        </mxCell>
        <mxCell id="-8VmKLxqJh8vT_d7yKZr-176" value="Thống Kê" style="ellipse;whiteSpace=wrap;html=1;" parent="1" vertex="1">
          <mxGeometry x="-3470" y="1699" width="120" height="81" as="geometry" />
        </mxCell>
        <mxCell id="-8VmKLxqJh8vT_d7yKZr-177" value="" style="endArrow=none;html=1;rounded=0;" parent="1" source="-8VmKLxqJh8vT_d7yKZr-174" target="-8VmKLxqJh8vT_d7yKZr-176" edge="1">
          <mxGeometry width="50" height="50" relative="1" as="geometry">
            <mxPoint x="-3410" y="1830" as="sourcePoint" />
            <mxPoint x="-3360" y="1780" as="targetPoint" />
          </mxGeometry>
        </mxCell>
        <mxCell id="-8VmKLxqJh8vT_d7yKZr-178" value="" style="endArrow=none;dashed=1;html=1;rounded=0;startArrow=classicThin;startFill=0;" parent="1" source="-8VmKLxqJh8vT_d7yKZr-176" target="-8VmKLxqJh8vT_d7yKZr-175" edge="1">
          <mxGeometry width="50" height="50" relative="1" as="geometry">
            <mxPoint x="-3500" y="1770" as="sourcePoint" />
            <mxPoint x="-3450" y="1720" as="targetPoint" />
          </mxGeometry>
        </mxCell>
        <mxCell id="-8VmKLxqJh8vT_d7yKZr-179" value="&amp;lt;&amp;lt;Extend&amp;gt;&amp;gt;" style="edgeLabel;html=1;align=center;verticalAlign=middle;resizable=0;points=[];" parent="-8VmKLxqJh8vT_d7yKZr-178" connectable="0" vertex="1">
          <mxGeometry x="-0.0929" relative="1" as="geometry">
            <mxPoint y="1" as="offset" />
          </mxGeometry>
        </mxCell>
        <mxCell id="-8VmKLxqJh8vT_d7yKZr-180" value="UseCase Thống Kê" style="text;html=1;align=center;verticalAlign=middle;whiteSpace=wrap;rounded=0;" parent="1" vertex="1">
          <mxGeometry x="-3610" y="1600" width="170" height="60" as="geometry" />
        </mxCell>
        <mxCell id="-8VmKLxqJh8vT_d7yKZr-181" value="In PDF" style="ellipse;whiteSpace=wrap;html=1;" parent="1" vertex="1">
          <mxGeometry x="-3280" y="1760" width="120" height="80" as="geometry" />
        </mxCell>
        <mxCell id="-8VmKLxqJh8vT_d7yKZr-182" value="" style="endArrow=none;dashed=1;html=1;rounded=0;startArrow=classicThin;startFill=0;" parent="1" source="-8VmKLxqJh8vT_d7yKZr-176" target="-8VmKLxqJh8vT_d7yKZr-181" edge="1">
          <mxGeometry width="50" height="50" relative="1" as="geometry">
            <mxPoint x="-3358" y="1720" as="sourcePoint" />
            <mxPoint x="-3252" y="1649" as="targetPoint" />
          </mxGeometry>
        </mxCell>
        <mxCell id="-8VmKLxqJh8vT_d7yKZr-183" value="&amp;lt;&amp;lt;Extend&amp;gt;&amp;gt;" style="edgeLabel;html=1;align=center;verticalAlign=middle;resizable=0;points=[];" parent="-8VmKLxqJh8vT_d7yKZr-182" connectable="0" vertex="1">
          <mxGeometry x="-0.0929" relative="1" as="geometry">
            <mxPoint y="1" as="offset" />
          </mxGeometry>
        </mxCell>
        <mxCell id="-8VmKLxqJh8vT_d7yKZr-184" value="Đăng Nhập" style="ellipse;whiteSpace=wrap;html=1;" parent="1" vertex="1">
          <mxGeometry x="-3720" y="1700" width="120" height="80" as="geometry" />
        </mxCell>
        <mxCell id="-8VmKLxqJh8vT_d7yKZr-185" value="" style="endArrow=none;dashed=1;html=1;rounded=0;endFill=0;startArrow=classicThin;startFill=0;" parent="1" source="-8VmKLxqJh8vT_d7yKZr-184" target="-8VmKLxqJh8vT_d7yKZr-176" edge="1">
          <mxGeometry width="50" height="50" relative="1" as="geometry">
            <mxPoint x="-4360" y="1731" as="sourcePoint" />
            <mxPoint x="-3740" y="1520" as="targetPoint" />
          </mxGeometry>
        </mxCell>
        <mxCell id="-8VmKLxqJh8vT_d7yKZr-186" value="&amp;lt;&amp;lt;Include&amp;gt;&amp;gt;" style="edgeLabel;html=1;align=center;verticalAlign=middle;resizable=0;points=[];" parent="-8VmKLxqJh8vT_d7yKZr-185" connectable="0" vertex="1">
          <mxGeometry x="0.0041" relative="1" as="geometry">
            <mxPoint as="offset" />
          </mxGeometry>
        </mxCell>
        <mxCell id="-8VmKLxqJh8vT_d7yKZr-200" value="Admin" style="shape=umlActor;verticalLabelPosition=bottom;verticalAlign=top;html=1;outlineConnect=0;" parent="1" vertex="1">
          <mxGeometry x="-2737" y="1560" width="30" height="60" as="geometry" />
        </mxCell>
        <mxCell id="-8VmKLxqJh8vT_d7yKZr-201" value="Xuất File Excel" style="ellipse;whiteSpace=wrap;html=1;" parent="1" vertex="1">
          <mxGeometry x="-2540" y="1600" width="120" height="80" as="geometry" />
        </mxCell>
        <mxCell id="-8VmKLxqJh8vT_d7yKZr-202" value="&amp;nbsp;Quản Lý Hóa Đơn" style="ellipse;whiteSpace=wrap;html=1;" parent="1" vertex="1">
          <mxGeometry x="-2782" y="1689" width="120" height="81" as="geometry" />
        </mxCell>
        <mxCell id="-8VmKLxqJh8vT_d7yKZr-203" value="" style="endArrow=none;html=1;rounded=0;" parent="1" target="-8VmKLxqJh8vT_d7yKZr-202" edge="1">
          <mxGeometry width="50" height="50" relative="1" as="geometry">
            <mxPoint x="-2722" y="1650" as="sourcePoint" />
            <mxPoint x="-2672" y="1770" as="targetPoint" />
          </mxGeometry>
        </mxCell>
        <mxCell id="-8VmKLxqJh8vT_d7yKZr-204" value="" style="endArrow=none;dashed=1;html=1;rounded=0;startArrow=classicThin;startFill=0;" parent="1" source="-8VmKLxqJh8vT_d7yKZr-202" target="-8VmKLxqJh8vT_d7yKZr-201" edge="1">
          <mxGeometry width="50" height="50" relative="1" as="geometry">
            <mxPoint x="-2812" y="1760" as="sourcePoint" />
            <mxPoint x="-2762" y="1710" as="targetPoint" />
          </mxGeometry>
        </mxCell>
        <mxCell id="-8VmKLxqJh8vT_d7yKZr-205" value="&amp;lt;&amp;lt;Extend&amp;gt;&amp;gt;" style="edgeLabel;html=1;align=center;verticalAlign=middle;resizable=0;points=[];" parent="-8VmKLxqJh8vT_d7yKZr-204" connectable="0" vertex="1">
          <mxGeometry x="-0.0929" relative="1" as="geometry">
            <mxPoint y="1" as="offset" />
          </mxGeometry>
        </mxCell>
        <mxCell id="-8VmKLxqJh8vT_d7yKZr-206" value="UseCase Quản Lý Hóa Đơn" style="text;html=1;align=center;verticalAlign=middle;whiteSpace=wrap;rounded=0;" parent="1" vertex="1">
          <mxGeometry x="-2922" y="1590" width="170" height="60" as="geometry" />
        </mxCell>
        <mxCell id="-8VmKLxqJh8vT_d7yKZr-210" value="Đăng Nhập" style="ellipse;whiteSpace=wrap;html=1;" parent="1" vertex="1">
          <mxGeometry x="-3032" y="1690" width="120" height="80" as="geometry" />
        </mxCell>
        <mxCell id="-8VmKLxqJh8vT_d7yKZr-211" value="" style="endArrow=none;dashed=1;html=1;rounded=0;endFill=0;startArrow=classicThin;startFill=0;" parent="1" source="-8VmKLxqJh8vT_d7yKZr-210" target="-8VmKLxqJh8vT_d7yKZr-202" edge="1">
          <mxGeometry width="50" height="50" relative="1" as="geometry">
            <mxPoint x="-3672" y="1721" as="sourcePoint" />
            <mxPoint x="-3052" y="1510" as="targetPoint" />
          </mxGeometry>
        </mxCell>
        <mxCell id="-8VmKLxqJh8vT_d7yKZr-212" value="&amp;lt;&amp;lt;Include&amp;gt;&amp;gt;" style="edgeLabel;html=1;align=center;verticalAlign=middle;resizable=0;points=[];" parent="-8VmKLxqJh8vT_d7yKZr-211" connectable="0" vertex="1">
          <mxGeometry x="0.0041" relative="1" as="geometry">
            <mxPoint as="offset" />
          </mxGeometry>
        </mxCell>
        <mxCell id="yQocSo2EYf9BkGAkTwSl-7" value="" style="endArrow=none;dashed=1;html=1;rounded=0;startArrow=classicThin;startFill=0;" parent="1" source="-8VmKLxqJh8vT_d7yKZr-202" target="yQocSo2EYf9BkGAkTwSl-11" edge="1">
          <mxGeometry width="50" height="50" relative="1" as="geometry">
            <mxPoint x="-2839" y="1802" as="sourcePoint" />
            <mxPoint x="-2720" y="1850" as="targetPoint" />
          </mxGeometry>
        </mxCell>
        <mxCell id="yQocSo2EYf9BkGAkTwSl-8" value="&amp;lt;&amp;lt;Extend&amp;gt;&amp;gt;" style="edgeLabel;html=1;align=center;verticalAlign=middle;resizable=0;points=[];" parent="yQocSo2EYf9BkGAkTwSl-7" connectable="0" vertex="1">
          <mxGeometry x="-0.0929" relative="1" as="geometry">
            <mxPoint y="1" as="offset" />
          </mxGeometry>
        </mxCell>
        <mxCell id="yQocSo2EYf9BkGAkTwSl-11" value="Sửa" style="ellipse;whiteSpace=wrap;html=1;" parent="1" vertex="1">
          <mxGeometry x="-2765" y="1880" width="120" height="80" as="geometry" />
        </mxCell>
        <mxCell id="yQocSo2EYf9BkGAkTwSl-12" value="Duyệt Đăng Game" style="ellipse;whiteSpace=wrap;html=1;" parent="1" vertex="1">
          <mxGeometry x="-3480" y="1380" width="120" height="80" as="geometry" />
        </mxCell>
        <mxCell id="yQocSo2EYf9BkGAkTwSl-13" value="" style="endArrow=none;dashed=1;html=1;rounded=0;startArrow=classicThin;startFill=0;" parent="1" source="-8VmKLxqJh8vT_d7yKZr-109" target="yQocSo2EYf9BkGAkTwSl-12" edge="1">
          <mxGeometry width="50" height="50" relative="1" as="geometry">
            <mxPoint x="-3656" y="1353" as="sourcePoint" />
            <mxPoint x="-3530" y="1380" as="targetPoint" />
          </mxGeometry>
        </mxCell>
        <mxCell id="yQocSo2EYf9BkGAkTwSl-14" value="&amp;lt;&amp;lt;Extend&amp;gt;&amp;gt;" style="edgeLabel;html=1;align=center;verticalAlign=middle;resizable=0;points=[];" parent="yQocSo2EYf9BkGAkTwSl-13" connectable="0" vertex="1">
          <mxGeometry x="-0.0929" relative="1" as="geometry">
            <mxPoint y="1" as="offset" />
          </mxGeometry>
        </mxCell>
        <mxCell id="yQocSo2EYf9BkGAkTwSl-15" value="Xóa" style="ellipse;whiteSpace=wrap;html=1;" parent="1" vertex="1">
          <mxGeometry x="-2800" y="840" width="120" height="80" as="geometry" />
        </mxCell>
        <mxCell id="yQocSo2EYf9BkGAkTwSl-16" value="" style="endArrow=none;dashed=1;html=1;rounded=0;startArrow=classicThin;startFill=0;" parent="1" source="-8VmKLxqJh8vT_d7yKZr-33" target="yQocSo2EYf9BkGAkTwSl-15" edge="1">
          <mxGeometry width="50" height="50" relative="1" as="geometry">
            <mxPoint x="-2960" y="889" as="sourcePoint" />
            <mxPoint x="-2840" y="889" as="targetPoint" />
          </mxGeometry>
        </mxCell>
        <mxCell id="yQocSo2EYf9BkGAkTwSl-17" value="&amp;lt;&amp;lt;Extend&amp;gt;&amp;gt;" style="edgeLabel;html=1;align=center;verticalAlign=middle;resizable=0;points=[];" parent="yQocSo2EYf9BkGAkTwSl-16" connectable="0" vertex="1">
          <mxGeometry x="-0.0929" relative="1" as="geometry">
            <mxPoint y="1" as="offset" />
          </mxGeometry>
        </mxCell>
        <mxCell id="pYDJysSxr3VV1y488UYp-3" value="Guest" style="shape=umlActor;verticalLabelPosition=bottom;verticalAlign=top;html=1;outlineConnect=0;" parent="1" vertex="1">
          <mxGeometry x="1155" y="-150" width="30" height="60" as="geometry" />
        </mxCell>
        <mxCell id="pYDJysSxr3VV1y488UYp-4" value="Register" style="ellipse;whiteSpace=wrap;html=1;" parent="1" vertex="1">
          <mxGeometry x="1370" y="-120" width="100" height="60" as="geometry" />
        </mxCell>
        <mxCell id="pYDJysSxr3VV1y488UYp-5" value="View game" style="ellipse;whiteSpace=wrap;html=1;" parent="1" vertex="1">
          <mxGeometry x="1040" y="-200" width="90" height="60" as="geometry" />
        </mxCell>
        <mxCell id="pYDJysSxr3VV1y488UYp-6" value="Search" style="ellipse;whiteSpace=wrap;html=1;" parent="1" vertex="1">
          <mxGeometry x="1120" y="-290" width="90" height="60" as="geometry" />
        </mxCell>
        <mxCell id="pYDJysSxr3VV1y488UYp-7" value="" style="endArrow=none;html=1;rounded=0;" parent="1" source="pYDJysSxr3VV1y488UYp-3" target="pYDJysSxr3VV1y488UYp-4" edge="1">
          <mxGeometry width="50" height="50" relative="1" as="geometry">
            <mxPoint x="1460" y="150" as="sourcePoint" />
            <mxPoint x="1510" y="100" as="targetPoint" />
          </mxGeometry>
        </mxCell>
        <mxCell id="pYDJysSxr3VV1y488UYp-8" value="" style="endArrow=none;html=1;rounded=0;" parent="1" source="pYDJysSxr3VV1y488UYp-3" target="pYDJysSxr3VV1y488UYp-5" edge="1">
          <mxGeometry width="50" height="50" relative="1" as="geometry">
            <mxPoint x="1460" y="150" as="sourcePoint" />
            <mxPoint x="1510" y="100" as="targetPoint" />
          </mxGeometry>
        </mxCell>
        <mxCell id="pYDJysSxr3VV1y488UYp-10" value="Filter" style="ellipse;whiteSpace=wrap;html=1;" parent="1" vertex="1">
          <mxGeometry x="940" y="-290" width="90" height="60" as="geometry" />
        </mxCell>
        <mxCell id="pYDJysSxr3VV1y488UYp-12" value="Login" style="ellipse;whiteSpace=wrap;html=1;" parent="1" vertex="1">
          <mxGeometry x="1170" y="220" width="90" height="60" as="geometry" />
        </mxCell>
        <mxCell id="pYDJysSxr3VV1y488UYp-13" value="User" style="shape=umlActor;verticalLabelPosition=bottom;verticalAlign=top;html=1;outlineConnect=0;" parent="1" vertex="1">
          <mxGeometry x="780" y="-70" width="30" height="60" as="geometry" />
        </mxCell>
        <mxCell id="pYDJysSxr3VV1y488UYp-15" value="WishList" style="ellipse;whiteSpace=wrap;html=1;" parent="1" vertex="1">
          <mxGeometry x="930" y="70" width="90" height="60" as="geometry" />
        </mxCell>
        <mxCell id="pYDJysSxr3VV1y488UYp-16" value="Comment" style="ellipse;whiteSpace=wrap;html=1;" parent="1" vertex="1">
          <mxGeometry x="655" y="380" width="90" height="60" as="geometry" />
        </mxCell>
        <mxCell id="pYDJysSxr3VV1y488UYp-18" value="Report" style="ellipse;whiteSpace=wrap;html=1;" parent="1" vertex="1">
          <mxGeometry x="470" y="337.94" width="90" height="60" as="geometry" />
        </mxCell>
        <mxCell id="pYDJysSxr3VV1y488UYp-20" value="Payment" style="ellipse;whiteSpace=wrap;html=1;" parent="1" vertex="1">
          <mxGeometry x="1030" y="60" width="90" height="60" as="geometry" />
        </mxCell>
        <mxCell id="pYDJysSxr3VV1y488UYp-24" value="" style="endArrow=none;dashed=1;html=1;rounded=0;startArrow=classicThin;startFill=0;exitX=1;exitY=0;exitDx=0;exitDy=0;" parent="1" source="pYDJysSxr3VV1y488UYp-5" target="pYDJysSxr3VV1y488UYp-6" edge="1">
          <mxGeometry width="50" height="50" relative="1" as="geometry">
            <mxPoint x="1530" y="-130" as="sourcePoint" />
            <mxPoint x="1635" y="-130" as="targetPoint" />
          </mxGeometry>
        </mxCell>
        <mxCell id="pYDJysSxr3VV1y488UYp-25" value="&amp;lt;&amp;lt;Extend&amp;gt;&amp;gt;" style="edgeLabel;html=1;align=center;verticalAlign=middle;resizable=0;points=[];" parent="pYDJysSxr3VV1y488UYp-24" connectable="0" vertex="1">
          <mxGeometry x="-0.0929" relative="1" as="geometry">
            <mxPoint y="1" as="offset" />
          </mxGeometry>
        </mxCell>
        <mxCell id="pYDJysSxr3VV1y488UYp-26" value="" style="endArrow=none;dashed=1;html=1;rounded=0;startArrow=classicThin;startFill=0;entryX=0.604;entryY=0.99;entryDx=0;entryDy=0;entryPerimeter=0;" parent="1" source="pYDJysSxr3VV1y488UYp-5" target="pYDJysSxr3VV1y488UYp-10" edge="1">
          <mxGeometry width="50" height="50" relative="1" as="geometry">
            <mxPoint x="1517" y="-111" as="sourcePoint" />
            <mxPoint x="1553" y="-154" as="targetPoint" />
          </mxGeometry>
        </mxCell>
        <mxCell id="pYDJysSxr3VV1y488UYp-27" value="&amp;lt;&amp;lt;Extend&amp;gt;&amp;gt;" style="edgeLabel;html=1;align=center;verticalAlign=middle;resizable=0;points=[];" parent="pYDJysSxr3VV1y488UYp-26" connectable="0" vertex="1">
          <mxGeometry x="-0.0929" relative="1" as="geometry">
            <mxPoint y="1" as="offset" />
          </mxGeometry>
        </mxCell>
        <mxCell id="pYDJysSxr3VV1y488UYp-28" value="Logout" style="ellipse;whiteSpace=wrap;html=1;" parent="1" vertex="1">
          <mxGeometry x="1030" y="310" width="90" height="60" as="geometry" />
        </mxCell>
        <mxCell id="pYDJysSxr3VV1y488UYp-29" value="Information" style="ellipse;whiteSpace=wrap;html=1;" parent="1" vertex="1">
          <mxGeometry x="770" y="420" width="90" height="60" as="geometry" />
        </mxCell>
        <mxCell id="pYDJysSxr3VV1y488UYp-30" value="ForgotPass" style="ellipse;whiteSpace=wrap;html=1;" parent="1" vertex="1">
          <mxGeometry x="1320" y="-30" width="90" height="60" as="geometry" />
        </mxCell>
        <mxCell id="pYDJysSxr3VV1y488UYp-31" value="ChangePass" style="ellipse;whiteSpace=wrap;html=1;" parent="1" vertex="1">
          <mxGeometry x="950" y="530" width="90" height="60" as="geometry" />
        </mxCell>
        <mxCell id="pYDJysSxr3VV1y488UYp-32" value="Order History" style="ellipse;whiteSpace=wrap;html=1;" parent="1" vertex="1">
          <mxGeometry x="520" y="140" width="90" height="60" as="geometry" />
        </mxCell>
        <mxCell id="pYDJysSxr3VV1y488UYp-37" value="User Interaction Features" style="ellipse;whiteSpace=wrap;html=1;" parent="1" vertex="1">
          <mxGeometry x="560" y="242.06" width="120" height="80" as="geometry" />
        </mxCell>
        <mxCell id="pYDJysSxr3VV1y488UYp-46" value="" style="endArrow=none;html=1;rounded=0;" parent="1" source="pYDJysSxr3VV1y488UYp-18" target="pYDJysSxr3VV1y488UYp-37" edge="1">
          <mxGeometry width="50" height="50" relative="1" as="geometry">
            <mxPoint x="1068" y="597" as="sourcePoint" />
            <mxPoint x="1107" y="538" as="targetPoint" />
          </mxGeometry>
        </mxCell>
        <mxCell id="pYDJysSxr3VV1y488UYp-48" value="" style="endArrow=none;html=1;rounded=0;" parent="1" source="pYDJysSxr3VV1y488UYp-16" target="pYDJysSxr3VV1y488UYp-37" edge="1">
          <mxGeometry width="50" height="50" relative="1" as="geometry">
            <mxPoint x="1088" y="617" as="sourcePoint" />
            <mxPoint x="1127" y="558" as="targetPoint" />
          </mxGeometry>
        </mxCell>
        <mxCell id="pYDJysSxr3VV1y488UYp-50" value="Account Settings" style="ellipse;whiteSpace=wrap;html=1;" parent="1" vertex="1">
          <mxGeometry x="740" y="290" width="120" height="80" as="geometry" />
        </mxCell>
        <mxCell id="pYDJysSxr3VV1y488UYp-52" value="" style="endArrow=none;html=1;rounded=0;" parent="1" source="pYDJysSxr3VV1y488UYp-50" target="pYDJysSxr3VV1y488UYp-31" edge="1">
          <mxGeometry width="50" height="50" relative="1" as="geometry">
            <mxPoint x="1245" y="220" as="sourcePoint" />
            <mxPoint x="1295" y="170" as="targetPoint" />
          </mxGeometry>
        </mxCell>
        <mxCell id="pYDJysSxr3VV1y488UYp-59" value="" style="endArrow=classic;html=1;rounded=0;" parent="1" source="pYDJysSxr3VV1y488UYp-13" target="pYDJysSxr3VV1y488UYp-3" edge="1">
          <mxGeometry width="50" height="50" relative="1" as="geometry">
            <mxPoint x="1160" y="130" as="sourcePoint" />
            <mxPoint x="1210" y="80" as="targetPoint" />
          </mxGeometry>
        </mxCell>
        <mxCell id="pYDJysSxr3VV1y488UYp-60" value="" style="endArrow=none;html=1;rounded=0;" parent="1" source="pYDJysSxr3VV1y488UYp-3" target="pYDJysSxr3VV1y488UYp-12" edge="1">
          <mxGeometry width="50" height="50" relative="1" as="geometry">
            <mxPoint x="930" y="150" as="sourcePoint" />
            <mxPoint x="980" y="100" as="targetPoint" />
          </mxGeometry>
        </mxCell>
        <mxCell id="pYDJysSxr3VV1y488UYp-62" value="" style="endArrow=none;html=1;rounded=0;" parent="1" source="pYDJysSxr3VV1y488UYp-3" target="pYDJysSxr3VV1y488UYp-30" edge="1">
          <mxGeometry width="50" height="50" relative="1" as="geometry">
            <mxPoint x="930" y="150" as="sourcePoint" />
            <mxPoint x="980" y="100" as="targetPoint" />
          </mxGeometry>
        </mxCell>
        <mxCell id="pYDJysSxr3VV1y488UYp-66" value="" style="endArrow=none;html=1;rounded=0;" parent="1" source="pYDJysSxr3VV1y488UYp-32" target="pYDJysSxr3VV1y488UYp-13" edge="1">
          <mxGeometry width="50" height="50" relative="1" as="geometry">
            <mxPoint x="753" y="113" as="sourcePoint" />
            <mxPoint x="810" y="24" as="targetPoint" />
          </mxGeometry>
        </mxCell>
        <mxCell id="pYDJysSxr3VV1y488UYp-67" value="" style="endArrow=classic;dashed=1;html=1;rounded=0;endFill=0;" parent="1" source="pYDJysSxr3VV1y488UYp-32" target="pYDJysSxr3VV1y488UYp-12" edge="1">
          <mxGeometry width="50" height="50" relative="1" as="geometry">
            <mxPoint x="788" y="159" as="sourcePoint" />
            <mxPoint x="1181" y="223" as="targetPoint" />
          </mxGeometry>
        </mxCell>
        <mxCell id="pYDJysSxr3VV1y488UYp-77" value="&amp;lt;&amp;lt;Include&amp;gt;&amp;gt;" style="edgeLabel;html=1;align=center;verticalAlign=middle;resizable=0;points=[];" parent="pYDJysSxr3VV1y488UYp-67" vertex="1" connectable="0">
          <mxGeometry x="0.0138" y="-1" relative="1" as="geometry">
            <mxPoint x="1" as="offset" />
          </mxGeometry>
        </mxCell>
        <mxCell id="pYDJysSxr3VV1y488UYp-68" value="" style="endArrow=none;html=1;rounded=0;" parent="1" source="pYDJysSxr3VV1y488UYp-13" target="pYDJysSxr3VV1y488UYp-20" edge="1">
          <mxGeometry width="50" height="50" relative="1" as="geometry">
            <mxPoint x="753" y="113" as="sourcePoint" />
            <mxPoint x="810" y="24" as="targetPoint" />
          </mxGeometry>
        </mxCell>
        <mxCell id="pYDJysSxr3VV1y488UYp-69" value="" style="endArrow=classic;dashed=1;html=1;rounded=0;endFill=0;" parent="1" source="pYDJysSxr3VV1y488UYp-20" target="pYDJysSxr3VV1y488UYp-12" edge="1">
          <mxGeometry width="50" height="50" relative="1" as="geometry">
            <mxPoint x="919" y="265" as="sourcePoint" />
            <mxPoint x="1181" y="235" as="targetPoint" />
            <Array as="points" />
          </mxGeometry>
        </mxCell>
        <mxCell id="pYDJysSxr3VV1y488UYp-75" value="&amp;lt;&amp;lt;Include&amp;gt;&amp;gt;" style="edgeLabel;html=1;align=center;verticalAlign=middle;resizable=0;points=[];" parent="pYDJysSxr3VV1y488UYp-69" vertex="1" connectable="0">
          <mxGeometry x="-0.1614" relative="1" as="geometry">
            <mxPoint x="1" as="offset" />
          </mxGeometry>
        </mxCell>
        <mxCell id="pYDJysSxr3VV1y488UYp-70" value="" style="endArrow=none;html=1;rounded=0;" parent="1" source="pYDJysSxr3VV1y488UYp-50" target="pYDJysSxr3VV1y488UYp-13" edge="1">
          <mxGeometry width="50" height="50" relative="1" as="geometry">
            <mxPoint x="1050" y="250" as="sourcePoint" />
            <mxPoint x="1100" y="200" as="targetPoint" />
          </mxGeometry>
        </mxCell>
        <mxCell id="pYDJysSxr3VV1y488UYp-71" value="" style="endArrow=classic;dashed=1;html=1;rounded=0;endFill=0;" parent="1" source="pYDJysSxr3VV1y488UYp-50" target="pYDJysSxr3VV1y488UYp-12" edge="1">
          <mxGeometry width="50" height="50" relative="1" as="geometry">
            <mxPoint x="840" y="248" as="sourcePoint" />
            <mxPoint x="1180" y="232" as="targetPoint" />
          </mxGeometry>
        </mxCell>
        <mxCell id="pYDJysSxr3VV1y488UYp-78" value="&amp;lt;&amp;lt;Include&amp;gt;&amp;gt;" style="edgeLabel;html=1;align=center;verticalAlign=middle;resizable=0;points=[];" parent="pYDJysSxr3VV1y488UYp-71" vertex="1" connectable="0">
          <mxGeometry x="-0.0924" y="-1" relative="1" as="geometry">
            <mxPoint as="offset" />
          </mxGeometry>
        </mxCell>
        <mxCell id="pYDJysSxr3VV1y488UYp-72" value="" style="endArrow=none;html=1;rounded=0;" parent="1" source="pYDJysSxr3VV1y488UYp-37" target="pYDJysSxr3VV1y488UYp-13" edge="1">
          <mxGeometry width="50" height="50" relative="1" as="geometry">
            <mxPoint x="865" y="320" as="sourcePoint" />
            <mxPoint x="829" y="30" as="targetPoint" />
          </mxGeometry>
        </mxCell>
        <mxCell id="pYDJysSxr3VV1y488UYp-73" value="" style="endArrow=classic;dashed=1;html=1;rounded=0;endFill=0;" parent="1" source="pYDJysSxr3VV1y488UYp-37" target="pYDJysSxr3VV1y488UYp-12" edge="1">
          <mxGeometry width="50" height="50" relative="1" as="geometry">
            <mxPoint x="923" y="341" as="sourcePoint" />
            <mxPoint x="1186" y="244" as="targetPoint" />
          </mxGeometry>
        </mxCell>
        <mxCell id="pYDJysSxr3VV1y488UYp-79" value="&amp;lt;&amp;lt;Include&amp;gt;&amp;gt;" style="edgeLabel;html=1;align=center;verticalAlign=middle;resizable=0;points=[];" parent="pYDJysSxr3VV1y488UYp-73" vertex="1" connectable="0">
          <mxGeometry x="-0.0678" y="-3" relative="1" as="geometry">
            <mxPoint as="offset" />
          </mxGeometry>
        </mxCell>
        <mxCell id="pYDJysSxr3VV1y488UYp-86" value="Admin" style="shape=umlActor;verticalLabelPosition=bottom;verticalAlign=top;html=1;outlineConnect=0;" parent="1" vertex="1">
          <mxGeometry x="1185" y="397.94" width="30" height="60" as="geometry" />
        </mxCell>
        <mxCell id="pYDJysSxr3VV1y488UYp-87" value="" style="endArrow=none;html=1;rounded=0;" parent="1" source="pYDJysSxr3VV1y488UYp-50" target="pYDJysSxr3VV1y488UYp-29" edge="1">
          <mxGeometry width="50" height="50" relative="1" as="geometry">
            <mxPoint x="1212" y="495" as="sourcePoint" />
            <mxPoint x="1166" y="553" as="targetPoint" />
          </mxGeometry>
        </mxCell>
        <mxCell id="pYDJysSxr3VV1y488UYp-89" value="" style="endArrow=none;html=1;rounded=0;" parent="1" source="pYDJysSxr3VV1y488UYp-50" target="pYDJysSxr3VV1y488UYp-86" edge="1">
          <mxGeometry width="50" height="50" relative="1" as="geometry">
            <mxPoint x="1068" y="411" as="sourcePoint" />
            <mxPoint x="840" y="25" as="targetPoint" />
          </mxGeometry>
        </mxCell>
        <mxCell id="pYDJysSxr3VV1y488UYp-91" value="Insert" style="ellipse;whiteSpace=wrap;html=1;" parent="1" vertex="1">
          <mxGeometry x="1835" y="100" width="90" height="60" as="geometry" />
        </mxCell>
        <mxCell id="pYDJysSxr3VV1y488UYp-93" value="OrderManager" style="ellipse;whiteSpace=wrap;html=1;" parent="1" vertex="1">
          <mxGeometry x="1660" y="560" width="90" height="60" as="geometry" />
        </mxCell>
        <mxCell id="pYDJysSxr3VV1y488UYp-95" value="Product Manager" style="ellipse;whiteSpace=wrap;html=1;" parent="1" vertex="1">
          <mxGeometry x="1452.5" y="530" width="90" height="60" as="geometry" />
        </mxCell>
        <mxCell id="pYDJysSxr3VV1y488UYp-96" value="Statistical" style="ellipse;whiteSpace=wrap;html=1;" parent="1" vertex="1">
          <mxGeometry x="1512.5" y="200" width="90" height="60" as="geometry" />
        </mxCell>
        <mxCell id="pYDJysSxr3VV1y488UYp-97" value="Comment&lt;div&gt;Managert&lt;/div&gt;" style="ellipse;whiteSpace=wrap;html=1;" parent="1" vertex="1">
          <mxGeometry x="1750" y="230" width="110" height="80" as="geometry" />
        </mxCell>
        <mxCell id="pYDJysSxr3VV1y488UYp-98" value="Management" style="ellipse;whiteSpace=wrap;html=1;" parent="1" vertex="1">
          <mxGeometry x="1452.5" y="350" width="105" height="70" as="geometry" />
        </mxCell>
        <mxCell id="pYDJysSxr3VV1y488UYp-99" value="" style="endArrow=none;html=1;rounded=0;" parent="1" source="pYDJysSxr3VV1y488UYp-86" target="pYDJysSxr3VV1y488UYp-96" edge="1">
          <mxGeometry width="50" height="50" relative="1" as="geometry">
            <mxPoint x="1630" y="440" as="sourcePoint" />
            <mxPoint x="1680" y="390" as="targetPoint" />
          </mxGeometry>
        </mxCell>
        <mxCell id="pYDJysSxr3VV1y488UYp-100" value="" style="endArrow=classic;dashed=1;html=1;rounded=0;endFill=0;" parent="1" source="pYDJysSxr3VV1y488UYp-96" target="pYDJysSxr3VV1y488UYp-12" edge="1">
          <mxGeometry width="50" height="50" relative="1" as="geometry">
            <mxPoint x="1113" y="411" as="sourcePoint" />
            <mxPoint x="1208" y="258" as="targetPoint" />
          </mxGeometry>
        </mxCell>
        <mxCell id="pYDJysSxr3VV1y488UYp-101" value="&amp;lt;&amp;lt;Include&amp;gt;&amp;gt;" style="edgeLabel;html=1;align=center;verticalAlign=middle;resizable=0;points=[];" parent="pYDJysSxr3VV1y488UYp-100" vertex="1" connectable="0">
          <mxGeometry x="-0.0924" y="-1" relative="1" as="geometry">
            <mxPoint as="offset" />
          </mxGeometry>
        </mxCell>
        <mxCell id="pYDJysSxr3VV1y488UYp-102" value="" style="endArrow=none;html=1;rounded=0;" parent="1" source="pYDJysSxr3VV1y488UYp-86" target="pYDJysSxr3VV1y488UYp-98" edge="1">
          <mxGeometry width="50" height="50" relative="1" as="geometry">
            <mxPoint x="1400" y="400" as="sourcePoint" />
            <mxPoint x="1450" y="350" as="targetPoint" />
          </mxGeometry>
        </mxCell>
        <mxCell id="pYDJysSxr3VV1y488UYp-103" value="" style="endArrow=classic;dashed=1;html=1;rounded=0;endFill=0;" parent="1" source="pYDJysSxr3VV1y488UYp-98" target="pYDJysSxr3VV1y488UYp-12" edge="1">
          <mxGeometry width="50" height="50" relative="1" as="geometry">
            <mxPoint x="1420" y="246" as="sourcePoint" />
            <mxPoint x="1270" y="234" as="targetPoint" />
          </mxGeometry>
        </mxCell>
        <mxCell id="pYDJysSxr3VV1y488UYp-104" value="&amp;lt;&amp;lt;Include&amp;gt;&amp;gt;" style="edgeLabel;html=1;align=center;verticalAlign=middle;resizable=0;points=[];" parent="pYDJysSxr3VV1y488UYp-103" vertex="1" connectable="0">
          <mxGeometry x="-0.0924" y="-1" relative="1" as="geometry">
            <mxPoint as="offset" />
          </mxGeometry>
        </mxCell>
        <mxCell id="pYDJysSxr3VV1y488UYp-105" value="" style="endArrow=none;html=1;rounded=0;" parent="1" source="pYDJysSxr3VV1y488UYp-95" target="pYDJysSxr3VV1y488UYp-98" edge="1">
          <mxGeometry width="50" height="50" relative="1" as="geometry">
            <mxPoint x="1730" y="420" as="sourcePoint" />
            <mxPoint x="1780" y="370" as="targetPoint" />
          </mxGeometry>
        </mxCell>
        <mxCell id="pYDJysSxr3VV1y488UYp-108" value="UserManager" style="ellipse;whiteSpace=wrap;html=1;" parent="1" vertex="1">
          <mxGeometry x="1790" y="470" width="90" height="60" as="geometry" />
        </mxCell>
        <mxCell id="pYDJysSxr3VV1y488UYp-109" value="Update" style="ellipse;whiteSpace=wrap;html=1;" parent="1" vertex="1">
          <mxGeometry x="1935" y="120" width="90" height="60" as="geometry" />
        </mxCell>
        <mxCell id="pYDJysSxr3VV1y488UYp-110" value="Delete" style="ellipse;whiteSpace=wrap;html=1;" parent="1" vertex="1">
          <mxGeometry x="1945" y="190" width="90" height="60" as="geometry" />
        </mxCell>
        <mxCell id="pYDJysSxr3VV1y488UYp-111" value="" style="endArrow=none;html=1;rounded=0;" parent="1" source="pYDJysSxr3VV1y488UYp-97" target="pYDJysSxr3VV1y488UYp-91" edge="1">
          <mxGeometry width="50" height="50" relative="1" as="geometry">
            <mxPoint x="1805" y="360" as="sourcePoint" />
            <mxPoint x="1855" y="310" as="targetPoint" />
          </mxGeometry>
        </mxCell>
        <mxCell id="pYDJysSxr3VV1y488UYp-112" value="" style="endArrow=none;html=1;rounded=0;" parent="1" source="pYDJysSxr3VV1y488UYp-97" target="pYDJysSxr3VV1y488UYp-109" edge="1">
          <mxGeometry width="50" height="50" relative="1" as="geometry">
            <mxPoint x="1805" y="360" as="sourcePoint" />
            <mxPoint x="1855" y="310" as="targetPoint" />
          </mxGeometry>
        </mxCell>
        <mxCell id="pYDJysSxr3VV1y488UYp-113" value="" style="endArrow=none;html=1;rounded=0;" parent="1" source="pYDJysSxr3VV1y488UYp-97" target="pYDJysSxr3VV1y488UYp-110" edge="1">
          <mxGeometry width="50" height="50" relative="1" as="geometry">
            <mxPoint x="1805" y="360" as="sourcePoint" />
            <mxPoint x="1855" y="310" as="targetPoint" />
          </mxGeometry>
        </mxCell>
        <mxCell id="pYDJysSxr3VV1y488UYp-114" value="" style="endArrow=none;html=1;rounded=0;" parent="1" source="pYDJysSxr3VV1y488UYp-98" target="pYDJysSxr3VV1y488UYp-97" edge="1">
          <mxGeometry width="50" height="50" relative="1" as="geometry">
            <mxPoint x="1680" y="180" as="sourcePoint" />
            <mxPoint x="1680" y="190" as="targetPoint" />
          </mxGeometry>
        </mxCell>
        <mxCell id="pYDJysSxr3VV1y488UYp-132" value="Insert" style="ellipse;whiteSpace=wrap;html=1;" parent="1" vertex="1">
          <mxGeometry x="2002.5" y="262.06" width="90" height="60" as="geometry" />
        </mxCell>
        <mxCell id="pYDJysSxr3VV1y488UYp-133" value="Update" style="ellipse;whiteSpace=wrap;html=1;" parent="1" vertex="1">
          <mxGeometry x="2042.5" y="340" width="90" height="60" as="geometry" />
        </mxCell>
        <mxCell id="pYDJysSxr3VV1y488UYp-134" value="Delete" style="ellipse;whiteSpace=wrap;html=1;" parent="1" vertex="1">
          <mxGeometry x="2002.5" y="420" width="90" height="60" as="geometry" />
        </mxCell>
        <mxCell id="pYDJysSxr3VV1y488UYp-135" value="" style="endArrow=none;html=1;rounded=0;" parent="1" source="pYDJysSxr3VV1y488UYp-98" target="pYDJysSxr3VV1y488UYp-156" edge="1">
          <mxGeometry width="50" height="50" relative="1" as="geometry">
            <mxPoint x="1740" y="420" as="sourcePoint" />
            <mxPoint x="2036.4670747777836" y="400.82292710476304" as="targetPoint" />
          </mxGeometry>
        </mxCell>
        <mxCell id="pYDJysSxr3VV1y488UYp-139" value="" style="endArrow=none;html=1;rounded=0;" parent="1" source="pYDJysSxr3VV1y488UYp-93" target="pYDJysSxr3VV1y488UYp-98" edge="1">
          <mxGeometry width="50" height="50" relative="1" as="geometry">
            <mxPoint x="1740" y="500" as="sourcePoint" />
            <mxPoint x="1790" y="450" as="targetPoint" />
          </mxGeometry>
        </mxCell>
        <mxCell id="pYDJysSxr3VV1y488UYp-140" value="" style="endArrow=none;html=1;rounded=0;" parent="1" source="pYDJysSxr3VV1y488UYp-108" target="pYDJysSxr3VV1y488UYp-98" edge="1">
          <mxGeometry width="50" height="50" relative="1" as="geometry">
            <mxPoint x="1740" y="500" as="sourcePoint" />
            <mxPoint x="1790" y="450" as="targetPoint" />
          </mxGeometry>
        </mxCell>
        <mxCell id="pYDJysSxr3VV1y488UYp-141" value="Insert" style="ellipse;whiteSpace=wrap;html=1;" parent="1" vertex="1">
          <mxGeometry x="1307.5" y="620" width="90" height="60" as="geometry" />
        </mxCell>
        <mxCell id="pYDJysSxr3VV1y488UYp-142" value="Update" style="ellipse;whiteSpace=wrap;html=1;" parent="1" vertex="1">
          <mxGeometry x="1422.5" y="680" width="90" height="60" as="geometry" />
        </mxCell>
        <mxCell id="pYDJysSxr3VV1y488UYp-143" value="Delete" style="ellipse;whiteSpace=wrap;html=1;" parent="1" vertex="1">
          <mxGeometry x="1552.5" y="660" width="90" height="60" as="geometry" />
        </mxCell>
        <mxCell id="pYDJysSxr3VV1y488UYp-144" value="" style="endArrow=none;html=1;rounded=0;" parent="1" source="pYDJysSxr3VV1y488UYp-141" target="pYDJysSxr3VV1y488UYp-95" edge="1">
          <mxGeometry width="50" height="50" relative="1" as="geometry">
            <mxPoint x="1672.5" y="640" as="sourcePoint" />
            <mxPoint x="1722.5" y="590" as="targetPoint" />
            <Array as="points">
              <mxPoint x="1420" y="610" />
            </Array>
          </mxGeometry>
        </mxCell>
        <mxCell id="pYDJysSxr3VV1y488UYp-145" value="" style="endArrow=none;html=1;rounded=0;" parent="1" source="pYDJysSxr3VV1y488UYp-142" target="pYDJysSxr3VV1y488UYp-95" edge="1">
          <mxGeometry width="50" height="50" relative="1" as="geometry">
            <mxPoint x="1682.5" y="650" as="sourcePoint" />
            <mxPoint x="1732.5" y="600" as="targetPoint" />
          </mxGeometry>
        </mxCell>
        <mxCell id="pYDJysSxr3VV1y488UYp-146" value="" style="endArrow=none;html=1;rounded=0;" parent="1" source="pYDJysSxr3VV1y488UYp-143" target="pYDJysSxr3VV1y488UYp-95" edge="1">
          <mxGeometry width="50" height="50" relative="1" as="geometry">
            <mxPoint x="1692.5" y="660" as="sourcePoint" />
            <mxPoint x="1742.5" y="610" as="targetPoint" />
          </mxGeometry>
        </mxCell>
        <mxCell id="pYDJysSxr3VV1y488UYp-153" value="Insert" style="ellipse;whiteSpace=wrap;html=1;" parent="1" vertex="1">
          <mxGeometry x="2030" y="550" width="90" height="60" as="geometry" />
        </mxCell>
        <mxCell id="pYDJysSxr3VV1y488UYp-154" value="Update" style="ellipse;whiteSpace=wrap;html=1;" parent="1" vertex="1">
          <mxGeometry x="1950" y="620" width="90" height="60" as="geometry" />
        </mxCell>
        <mxCell id="pYDJysSxr3VV1y488UYp-155" value="Delete" style="ellipse;whiteSpace=wrap;html=1;" parent="1" vertex="1">
          <mxGeometry x="1840" y="650" width="90" height="60" as="geometry" />
        </mxCell>
        <mxCell id="pYDJysSxr3VV1y488UYp-156" value="Category&lt;div&gt;Manager&lt;/div&gt;" style="ellipse;whiteSpace=wrap;html=1;" parent="1" vertex="1">
          <mxGeometry x="1827.5" y="347.94" width="90" height="60" as="geometry" />
        </mxCell>
        <mxCell id="pYDJysSxr3VV1y488UYp-157" value="" style="endArrow=none;html=1;rounded=0;" parent="1" source="pYDJysSxr3VV1y488UYp-156" target="pYDJysSxr3VV1y488UYp-132" edge="1">
          <mxGeometry width="50" height="50" relative="1" as="geometry">
            <mxPoint x="1782.5" y="550" as="sourcePoint" />
            <mxPoint x="1832.5" y="500" as="targetPoint" />
          </mxGeometry>
        </mxCell>
        <mxCell id="pYDJysSxr3VV1y488UYp-158" value="" style="endArrow=none;html=1;rounded=0;" parent="1" source="pYDJysSxr3VV1y488UYp-156" target="pYDJysSxr3VV1y488UYp-133" edge="1">
          <mxGeometry width="50" height="50" relative="1" as="geometry">
            <mxPoint x="2046.5" y="415" as="sourcePoint" />
            <mxPoint x="2128.5" y="385" as="targetPoint" />
          </mxGeometry>
        </mxCell>
        <mxCell id="pYDJysSxr3VV1y488UYp-159" value="" style="endArrow=none;html=1;rounded=0;" parent="1" source="pYDJysSxr3VV1y488UYp-156" target="pYDJysSxr3VV1y488UYp-134" edge="1">
          <mxGeometry width="50" height="50" relative="1" as="geometry">
            <mxPoint x="2056.5" y="425" as="sourcePoint" />
            <mxPoint x="2138.5" y="395" as="targetPoint" />
          </mxGeometry>
        </mxCell>
        <mxCell id="pYDJysSxr3VV1y488UYp-160" value="" style="endArrow=none;html=1;rounded=0;" parent="1" source="pYDJysSxr3VV1y488UYp-153" target="pYDJysSxr3VV1y488UYp-108" edge="1">
          <mxGeometry width="50" height="50" relative="1" as="geometry">
            <mxPoint x="1954" y="537.94" as="sourcePoint" />
            <mxPoint x="2036" y="507.94" as="targetPoint" />
          </mxGeometry>
        </mxCell>
        <mxCell id="pYDJysSxr3VV1y488UYp-161" value="" style="endArrow=none;html=1;rounded=0;" parent="1" source="pYDJysSxr3VV1y488UYp-154" target="pYDJysSxr3VV1y488UYp-108" edge="1">
          <mxGeometry width="50" height="50" relative="1" as="geometry">
            <mxPoint x="2045" y="577" as="sourcePoint" />
            <mxPoint x="1885" y="523" as="targetPoint" />
          </mxGeometry>
        </mxCell>
        <mxCell id="pYDJysSxr3VV1y488UYp-162" value="" style="endArrow=none;html=1;rounded=0;" parent="1" source="pYDJysSxr3VV1y488UYp-155" target="pYDJysSxr3VV1y488UYp-108" edge="1">
          <mxGeometry width="50" height="50" relative="1" as="geometry">
            <mxPoint x="2055" y="587" as="sourcePoint" />
            <mxPoint x="1895" y="533" as="targetPoint" />
          </mxGeometry>
        </mxCell>
        <mxCell id="pYDJysSxr3VV1y488UYp-163" value="" style="endArrow=none;html=1;rounded=0;" parent="1" source="pYDJysSxr3VV1y488UYp-13" target="pYDJysSxr3VV1y488UYp-15" edge="1">
          <mxGeometry width="50" height="50" relative="1" as="geometry">
            <mxPoint x="840" y="11" as="sourcePoint" />
            <mxPoint x="964" y="98" as="targetPoint" />
          </mxGeometry>
        </mxCell>
        <mxCell id="pYDJysSxr3VV1y488UYp-166" value="" style="endArrow=classic;dashed=1;html=1;rounded=0;endFill=0;" parent="1" source="pYDJysSxr3VV1y488UYp-15" target="pYDJysSxr3VV1y488UYp-12" edge="1">
          <mxGeometry width="50" height="50" relative="1" as="geometry">
            <mxPoint x="1032" y="137" as="sourcePoint" />
            <mxPoint x="1188" y="213" as="targetPoint" />
            <Array as="points" />
          </mxGeometry>
        </mxCell>
        <mxCell id="pYDJysSxr3VV1y488UYp-167" value="&amp;lt;&amp;lt;Include&amp;gt;&amp;gt;" style="edgeLabel;html=1;align=center;verticalAlign=middle;resizable=0;points=[];" parent="pYDJysSxr3VV1y488UYp-166" vertex="1" connectable="0">
          <mxGeometry x="-0.1614" relative="1" as="geometry">
            <mxPoint x="1" as="offset" />
          </mxGeometry>
        </mxCell>
        <mxCell id="pYDJysSxr3VV1y488UYp-168" value="Login With Google" style="ellipse;whiteSpace=wrap;html=1;" parent="1" vertex="1">
          <mxGeometry x="1345" y="110" width="90" height="60" as="geometry" />
        </mxCell>
        <mxCell id="pYDJysSxr3VV1y488UYp-169" value="" style="endArrow=classic;dashed=1;html=1;rounded=0;endFill=0;" parent="1" source="pYDJysSxr3VV1y488UYp-168" target="pYDJysSxr3VV1y488UYp-12" edge="1">
          <mxGeometry width="50" height="50" relative="1" as="geometry">
            <mxPoint x="1391" y="330" as="sourcePoint" />
            <mxPoint x="1258" y="250" as="targetPoint" />
          </mxGeometry>
        </mxCell>
        <mxCell id="pYDJysSxr3VV1y488UYp-170" value="&amp;lt;&amp;lt;Extend&amp;gt;&amp;gt;" style="edgeLabel;html=1;align=center;verticalAlign=middle;resizable=0;points=[];" parent="pYDJysSxr3VV1y488UYp-169" vertex="1" connectable="0">
          <mxGeometry x="-0.0924" y="-1" relative="1" as="geometry">
            <mxPoint as="offset" />
          </mxGeometry>
        </mxCell>
        <mxCell id="pYDJysSxr3VV1y488UYp-172" value="Reply" style="ellipse;whiteSpace=wrap;html=1;" parent="1" vertex="1">
          <mxGeometry x="520" y="457.94" width="90" height="60" as="geometry" />
        </mxCell>
        <mxCell id="pYDJysSxr3VV1y488UYp-179" value="Update&lt;div&gt;Information&lt;/div&gt;" style="ellipse;whiteSpace=wrap;html=1;" parent="1" vertex="1">
          <mxGeometry x="770" y="530" width="90" height="60" as="geometry" />
        </mxCell>
        <mxCell id="pYDJysSxr3VV1y488UYp-182" value="MoMo" style="ellipse;whiteSpace=wrap;html=1;" parent="1" vertex="1">
          <mxGeometry x="970" y="-20" width="90" height="60" as="geometry" />
        </mxCell>
        <mxCell id="pYDJysSxr3VV1y488UYp-183" value="Payos" style="ellipse;whiteSpace=wrap;html=1;" parent="1" vertex="1">
          <mxGeometry x="1080" y="-30" width="90" height="60" as="geometry" />
        </mxCell>
        <mxCell id="pYDJysSxr3VV1y488UYp-193" value="" style="endArrow=none;html=1;rounded=0;" parent="1" source="pYDJysSxr3VV1y488UYp-20" target="pYDJysSxr3VV1y488UYp-182" edge="1">
          <mxGeometry width="50" height="50" relative="1" as="geometry">
            <mxPoint x="1020" y="70" as="sourcePoint" />
            <mxPoint x="1070" y="20" as="targetPoint" />
          </mxGeometry>
        </mxCell>
        <mxCell id="pYDJysSxr3VV1y488UYp-194" value="" style="endArrow=none;html=1;rounded=0;" parent="1" source="pYDJysSxr3VV1y488UYp-20" target="pYDJysSxr3VV1y488UYp-183" edge="1">
          <mxGeometry width="50" height="50" relative="1" as="geometry">
            <mxPoint x="1065" y="101" as="sourcePoint" />
            <mxPoint x="1046" y="49" as="targetPoint" />
          </mxGeometry>
        </mxCell>
        <mxCell id="pYDJysSxr3VV1y488UYp-195" value="" style="endArrow=none;html=1;rounded=0;" parent="1" source="pYDJysSxr3VV1y488UYp-179" target="pYDJysSxr3VV1y488UYp-29" edge="1">
          <mxGeometry width="50" height="50" relative="1" as="geometry">
            <mxPoint x="910" y="610" as="sourcePoint" />
            <mxPoint x="940" y="640" as="targetPoint" />
          </mxGeometry>
        </mxCell>
        <mxCell id="pYDJysSxr3VV1y488UYp-196" value="" style="endArrow=none;html=1;rounded=0;" parent="1" source="pYDJysSxr3VV1y488UYp-172" target="pYDJysSxr3VV1y488UYp-16" edge="1">
          <mxGeometry width="50" height="50" relative="1" as="geometry">
            <mxPoint x="934" y="601" as="sourcePoint" />
            <mxPoint x="951" y="547" as="targetPoint" />
          </mxGeometry>
        </mxCell>
        <mxCell id="pYDJysSxr3VV1y488UYp-199" value="Export" style="ellipse;whiteSpace=wrap;html=1;" parent="1" vertex="1">
          <mxGeometry x="1680" y="120" width="90" height="60" as="geometry" />
        </mxCell>
        <mxCell id="pYDJysSxr3VV1y488UYp-204" value="" style="endArrow=classic;dashed=1;html=1;rounded=0;endFill=0;" parent="1" source="pYDJysSxr3VV1y488UYp-199" target="pYDJysSxr3VV1y488UYp-96" edge="1">
          <mxGeometry width="50" height="50" relative="1" as="geometry">
            <mxPoint x="1629" y="128" as="sourcePoint" />
            <mxPoint x="1583" y="212" as="targetPoint" />
          </mxGeometry>
        </mxCell>
        <mxCell id="pYDJysSxr3VV1y488UYp-205" value="&amp;lt;&amp;lt;Extend&amp;gt;&amp;gt;" style="edgeLabel;html=1;align=center;verticalAlign=middle;resizable=0;points=[];" parent="pYDJysSxr3VV1y488UYp-204" vertex="1" connectable="0">
          <mxGeometry x="-0.0924" y="-1" relative="1" as="geometry">
            <mxPoint as="offset" />
          </mxGeometry>
        </mxCell>
        <mxCell id="jNNCX3JZ0FkSKxQCtzj--4" value="" style="endArrow=none;html=1;rounded=0;" edge="1" parent="1" source="pYDJysSxr3VV1y488UYp-13" target="pYDJysSxr3VV1y488UYp-28">
          <mxGeometry width="50" height="50" relative="1" as="geometry">
            <mxPoint x="526" y="168" as="sourcePoint" />
            <mxPoint x="790" y="-19" as="targetPoint" />
          </mxGeometry>
        </mxCell>
        <mxCell id="jNNCX3JZ0FkSKxQCtzj--5" value="" style="endArrow=none;html=1;rounded=0;" edge="1" parent="1" source="pYDJysSxr3VV1y488UYp-28" target="pYDJysSxr3VV1y488UYp-86">
          <mxGeometry width="50" height="50" relative="1" as="geometry">
            <mxPoint x="720" y="57" as="sourcePoint" />
            <mxPoint x="1133" y="420" as="targetPoint" />
          </mxGeometry>
        </mxCell>
        <mxCell id="jNNCX3JZ0FkSKxQCtzj--7" value="Order detail" style="ellipse;whiteSpace=wrap;html=1;" vertex="1" parent="1">
          <mxGeometry x="1700" y="670" width="90" height="60" as="geometry" />
        </mxCell>
        <mxCell id="jNNCX3JZ0FkSKxQCtzj--8" value="" style="endArrow=none;html=1;rounded=0;" edge="1" parent="1" source="jNNCX3JZ0FkSKxQCtzj--7" target="pYDJysSxr3VV1y488UYp-93">
          <mxGeometry width="50" height="50" relative="1" as="geometry">
            <mxPoint x="1587" y="673" as="sourcePoint" />
            <mxPoint x="1528" y="597" as="targetPoint" />
          </mxGeometry>
        </mxCell>
        <mxCell id="jNNCX3JZ0FkSKxQCtzj--9" value="Delete" style="ellipse;whiteSpace=wrap;html=1;" vertex="1" parent="1">
          <mxGeometry x="810" y="120" width="90" height="60" as="geometry" />
        </mxCell>
        <mxCell id="jNNCX3JZ0FkSKxQCtzj--11" value="Add" style="ellipse;whiteSpace=wrap;html=1;" vertex="1" parent="1">
          <mxGeometry x="970" y="160" width="90" height="60" as="geometry" />
        </mxCell>
        <mxCell id="jNNCX3JZ0FkSKxQCtzj--15" value="" style="endArrow=none;html=1;rounded=0;" edge="1" parent="1" source="jNNCX3JZ0FkSKxQCtzj--9" target="pYDJysSxr3VV1y488UYp-15">
          <mxGeometry width="50" height="50" relative="1" as="geometry">
            <mxPoint x="820" y="-8" as="sourcePoint" />
            <mxPoint x="1041" y="313" as="targetPoint" />
          </mxGeometry>
        </mxCell>
        <mxCell id="jNNCX3JZ0FkSKxQCtzj--16" value="" style="endArrow=none;html=1;rounded=0;" edge="1" parent="1" source="jNNCX3JZ0FkSKxQCtzj--11" target="pYDJysSxr3VV1y488UYp-15">
          <mxGeometry width="50" height="50" relative="1" as="geometry">
            <mxPoint x="907" y="150" as="sourcePoint" />
            <mxPoint x="943" y="141" as="targetPoint" />
          </mxGeometry>
        </mxCell>
      </root>
    </mxGraphModel>
  </diagram>
</mxfile>
